G04 #@! TF.GenerationSoftware,KiCad,Pcbnew,no-vcs-found-c78a2ba~59~ubuntu16.10.1*
G04 #@! TF.CreationDate,2017-11-10T05:59:47+01:00*
G04 #@! TF.ProjectId,open_reflow,6F70656E5F7265666C6F772E6B696361,rev?*
G04 #@! TF.SameCoordinates,Original
G04 #@! TF.FileFunction,Soldermask,Bot*
G04 #@! TF.FilePolarity,Negative*
%FSLAX46Y46*%
G04 Gerber Fmt 4.6, Leading zero omitted, Abs format (unit mm)*
G04 Created by KiCad (PCBNEW no-vcs-found-c78a2ba~59~ubuntu16.10.1) date Fri Nov 10 05:59:47 2017*
%MOMM*%
%LPD*%
G01*
G04 APERTURE LIST*
%ADD10C,2.690000*%
%ADD11C,5.400000*%
%ADD12C,2.000000*%
%ADD13C,0.100000*%
%ADD14C,3.400000*%
%ADD15R,3.400000X3.400000*%
%ADD16R,2.100000X2.100000*%
%ADD17O,2.100000X2.100000*%
%ADD18R,1.750000X1.750000*%
%ADD19C,1.750000*%
%ADD20C,2.900000*%
%ADD21C,9.400000*%
G04 APERTURE END LIST*
D10*
X192782500Y-51605500D03*
X192782500Y-44005500D03*
X164782500Y-59205500D03*
X164782500Y-44005500D03*
D11*
X153098500Y-62855000D03*
X153098500Y-54605000D03*
X153098500Y-29855000D03*
X153098500Y-46355000D03*
X153098500Y-38105000D03*
D12*
X193294000Y-32258000D03*
X187919988Y-26883988D03*
D13*
G36*
X186505774Y-26883988D02*
X187919988Y-25469774D01*
X189334202Y-26883988D01*
X187919988Y-28298202D01*
X186505774Y-26883988D01*
X186505774Y-26883988D01*
G37*
D14*
X193421000Y-72834500D03*
D15*
X198501000Y-72834500D03*
D16*
X198755000Y-53213000D03*
D17*
X198755000Y-50673000D03*
D16*
X209867500Y-69215000D03*
D17*
X212407500Y-69215000D03*
X214947500Y-69215000D03*
X222504000Y-58991500D03*
X222504000Y-61531500D03*
D16*
X222504000Y-64071500D03*
D17*
X215392000Y-64643000D03*
D16*
X212852000Y-64643000D03*
D18*
X177673000Y-65532000D03*
D19*
X177673000Y-68072000D03*
X185293000Y-65532000D03*
X185293000Y-68072000D03*
D14*
X180012000Y-30942000D03*
D20*
X178062000Y-36892000D03*
D14*
X165812000Y-36942000D03*
X165862000Y-24892000D03*
D20*
X178062000Y-24892000D03*
D21*
X220827600Y-20066000D03*
X220827600Y-72491600D03*
X151333200Y-72491600D03*
X151333200Y-20066000D03*
M02*
