G04 #@! TF.GenerationSoftware,KiCad,Pcbnew,no-vcs-found-c78a2ba~59~ubuntu16.10.1*
G04 #@! TF.CreationDate,2017-11-10T05:59:47+01:00*
G04 #@! TF.ProjectId,open_reflow,6F70656E5F7265666C6F772E6B696361,rev?*
G04 #@! TF.SameCoordinates,Original
G04 #@! TF.FileFunction,Soldermask,Top*
G04 #@! TF.FilePolarity,Negative*
%FSLAX46Y46*%
G04 Gerber Fmt 4.6, Leading zero omitted, Abs format (unit mm)*
G04 Created by KiCad (PCBNEW no-vcs-found-c78a2ba~59~ubuntu16.10.1) date Fri Nov 10 05:59:47 2017*
%MOMM*%
%LPD*%
G01*
G04 APERTURE LIST*
%ADD10R,1.300000X1.200000*%
%ADD11C,2.690000*%
%ADD12R,1.500000X2.900000*%
%ADD13C,5.400000*%
%ADD14C,2.000000*%
%ADD15C,0.100000*%
%ADD16R,2.000000X2.400000*%
%ADD17R,2.400000X2.000000*%
%ADD18R,1.650000X1.900000*%
%ADD19C,3.400000*%
%ADD20R,3.400000X3.400000*%
%ADD21R,2.100000X2.100000*%
%ADD22O,2.100000X2.100000*%
%ADD23R,1.900000X1.700000*%
%ADD24R,1.700000X1.900000*%
%ADD25R,1.750000X1.750000*%
%ADD26C,1.750000*%
%ADD27R,2.200000X2.900000*%
%ADD28C,2.900000*%
%ADD29R,2.400000X2.100000*%
%ADD30C,9.400000*%
G04 APERTURE END LIST*
D10*
X198755000Y-36830000D03*
X200755000Y-35880000D03*
X200755000Y-37780000D03*
D11*
X192782500Y-51605500D03*
X192782500Y-44005500D03*
X164782500Y-59205500D03*
X164782500Y-44005500D03*
D12*
X224503500Y-38830500D03*
X222503500Y-38830500D03*
X220503500Y-38830500D03*
X218503500Y-38830500D03*
X216503500Y-38830500D03*
X214503500Y-38830500D03*
X212503500Y-38830500D03*
X210503500Y-38830500D03*
X210503500Y-54230500D03*
X212503500Y-54130500D03*
X214503500Y-54230500D03*
X216503500Y-54230500D03*
X218503500Y-54230500D03*
X220503500Y-54230500D03*
X222503500Y-54230500D03*
X224503500Y-54230500D03*
D13*
X153098500Y-62855000D03*
X153098500Y-54605000D03*
X153098500Y-29855000D03*
X153098500Y-46355000D03*
X153098500Y-38105000D03*
D14*
X193294000Y-32258000D03*
X187919988Y-26883988D03*
D15*
G36*
X186505774Y-26883988D02*
X187919988Y-25469774D01*
X189334202Y-26883988D01*
X187919988Y-28298202D01*
X186505774Y-26883988D01*
X186505774Y-26883988D01*
G37*
D16*
X202692000Y-45307000D03*
X202692000Y-41307000D03*
X197612000Y-41338500D03*
X197612000Y-45338500D03*
D17*
X213734400Y-72898000D03*
X209734400Y-72898000D03*
D16*
X200152000Y-41307000D03*
X200152000Y-45307000D03*
D18*
X205041500Y-41104500D03*
X205041500Y-43604500D03*
X207200500Y-43604500D03*
X207200500Y-41104500D03*
D19*
X193421000Y-72834500D03*
D20*
X198501000Y-72834500D03*
D21*
X198755000Y-53213000D03*
D22*
X198755000Y-50673000D03*
D21*
X209867500Y-69215000D03*
D22*
X212407500Y-69215000D03*
X214947500Y-69215000D03*
X222504000Y-58991500D03*
X222504000Y-61531500D03*
D21*
X222504000Y-64071500D03*
D22*
X215392000Y-64643000D03*
D21*
X212852000Y-64643000D03*
D10*
X200755000Y-32829500D03*
X200755000Y-30929500D03*
X198755000Y-31879500D03*
D23*
X206391500Y-33337500D03*
X203691500Y-33337500D03*
X189785000Y-65595500D03*
X192485000Y-65595500D03*
D24*
X220599000Y-33194000D03*
X220599000Y-35894000D03*
D23*
X203628000Y-61658500D03*
X206328000Y-61658500D03*
D24*
X222885000Y-35894000D03*
X222885000Y-33194000D03*
X207010000Y-54055000D03*
X207010000Y-51355000D03*
D23*
X206391500Y-31115000D03*
X203691500Y-31115000D03*
X200892400Y-27076400D03*
X198192400Y-27076400D03*
D24*
X209105500Y-66564500D03*
X209105500Y-63864500D03*
D17*
X209941000Y-34937500D03*
X217541000Y-34937500D03*
X217541000Y-31737500D03*
X209941000Y-31737500D03*
X217531000Y-60921500D03*
X209931000Y-60921500D03*
X209931000Y-57721500D03*
X217531000Y-57721500D03*
D25*
X177673000Y-65532000D03*
D26*
X177673000Y-68072000D03*
X185293000Y-65532000D03*
X185293000Y-68072000D03*
D27*
X204343000Y-69437000D03*
X204343000Y-65437000D03*
D23*
X206502000Y-38481000D03*
X203802000Y-38481000D03*
X203691500Y-27114500D03*
X206391500Y-27114500D03*
D19*
X180012000Y-30942000D03*
D28*
X178062000Y-36892000D03*
D19*
X165812000Y-36942000D03*
X165862000Y-24892000D03*
D28*
X178062000Y-24892000D03*
D29*
X170180000Y-65214500D03*
X174180000Y-65214500D03*
X174180000Y-69723000D03*
X170180000Y-69723000D03*
D30*
X220827600Y-20066000D03*
X220827600Y-72491600D03*
X151333200Y-72491600D03*
X151333200Y-20066000D03*
M02*
