G04 #@! TF.GenerationSoftware,KiCad,Pcbnew,no-vcs-found-c78a2ba~59~ubuntu16.10.1*
G04 #@! TF.CreationDate,2017-11-10T05:59:47+01:00*
G04 #@! TF.ProjectId,open_reflow,6F70656E5F7265666C6F772E6B696361,rev?*
G04 #@! TF.SameCoordinates,Original
G04 #@! TF.FileFunction,Copper,L1,Top,Signal*
G04 #@! TF.FilePolarity,Positive*
%FSLAX46Y46*%
G04 Gerber Fmt 4.6, Leading zero omitted, Abs format (unit mm)*
G04 Created by KiCad (PCBNEW no-vcs-found-c78a2ba~59~ubuntu16.10.1) date Fri Nov 10 05:59:47 2017*
%MOMM*%
%LPD*%
G01*
G04 APERTURE LIST*
%ADD10R,0.900000X0.800000*%
%ADD11C,2.290000*%
%ADD12R,1.100000X2.500000*%
%ADD13C,5.000000*%
%ADD14C,1.600000*%
%ADD15C,0.100000*%
%ADD16R,1.600000X2.000000*%
%ADD17R,2.000000X1.600000*%
%ADD18R,1.250000X1.500000*%
%ADD19C,3.000000*%
%ADD20R,3.000000X3.000000*%
%ADD21R,1.700000X1.700000*%
%ADD22O,1.700000X1.700000*%
%ADD23R,1.500000X1.300000*%
%ADD24R,1.300000X1.500000*%
%ADD25R,1.350000X1.350000*%
%ADD26C,1.350000*%
%ADD27R,1.800000X2.500000*%
%ADD28C,2.500000*%
%ADD29R,2.000000X1.700000*%
%ADD30C,9.000000*%
%ADD31C,1.200000*%
%ADD32C,0.500000*%
%ADD33C,1.000000*%
%ADD34C,0.254000*%
G04 APERTURE END LIST*
D10*
X198755000Y-36830000D03*
X200755000Y-35880000D03*
X200755000Y-37780000D03*
D11*
X192782500Y-51605500D03*
X192782500Y-44005500D03*
X164782500Y-59205500D03*
X164782500Y-44005500D03*
D12*
X224503500Y-38830500D03*
X222503500Y-38830500D03*
X220503500Y-38830500D03*
X218503500Y-38830500D03*
X216503500Y-38830500D03*
X214503500Y-38830500D03*
X212503500Y-38830500D03*
X210503500Y-38830500D03*
X210503500Y-54230500D03*
X212503500Y-54130500D03*
X214503500Y-54230500D03*
X216503500Y-54230500D03*
X218503500Y-54230500D03*
X220503500Y-54230500D03*
X222503500Y-54230500D03*
X224503500Y-54230500D03*
D13*
X153098500Y-62855000D03*
X153098500Y-54605000D03*
X153098500Y-29855000D03*
X153098500Y-46355000D03*
X153098500Y-38105000D03*
D14*
X193294000Y-32258000D03*
X187919988Y-26883988D03*
D15*
G36*
X186788617Y-26883988D02*
X187919988Y-25752617D01*
X189051359Y-26883988D01*
X187919988Y-28015359D01*
X186788617Y-26883988D01*
X186788617Y-26883988D01*
G37*
D16*
X202692000Y-45307000D03*
X202692000Y-41307000D03*
X197612000Y-41338500D03*
X197612000Y-45338500D03*
D17*
X213734400Y-72898000D03*
X209734400Y-72898000D03*
D16*
X200152000Y-41307000D03*
X200152000Y-45307000D03*
D18*
X205041500Y-41104500D03*
X205041500Y-43604500D03*
X207200500Y-43604500D03*
X207200500Y-41104500D03*
D19*
X193421000Y-72834500D03*
D20*
X198501000Y-72834500D03*
D21*
X198755000Y-53213000D03*
D22*
X198755000Y-50673000D03*
D21*
X209867500Y-69215000D03*
D22*
X212407500Y-69215000D03*
X214947500Y-69215000D03*
X222504000Y-58991500D03*
X222504000Y-61531500D03*
D21*
X222504000Y-64071500D03*
D22*
X215392000Y-64643000D03*
D21*
X212852000Y-64643000D03*
D10*
X200755000Y-32829500D03*
X200755000Y-30929500D03*
X198755000Y-31879500D03*
D23*
X206391500Y-33337500D03*
X203691500Y-33337500D03*
X189785000Y-65595500D03*
X192485000Y-65595500D03*
D24*
X220599000Y-33194000D03*
X220599000Y-35894000D03*
D23*
X203628000Y-61658500D03*
X206328000Y-61658500D03*
D24*
X222885000Y-35894000D03*
X222885000Y-33194000D03*
X207010000Y-54055000D03*
X207010000Y-51355000D03*
D23*
X206391500Y-31115000D03*
X203691500Y-31115000D03*
X200892400Y-27076400D03*
X198192400Y-27076400D03*
D24*
X209105500Y-66564500D03*
X209105500Y-63864500D03*
D17*
X209941000Y-34937500D03*
X217541000Y-34937500D03*
X217541000Y-31737500D03*
X209941000Y-31737500D03*
X217531000Y-60921500D03*
X209931000Y-60921500D03*
X209931000Y-57721500D03*
X217531000Y-57721500D03*
D25*
X177673000Y-65532000D03*
D26*
X177673000Y-68072000D03*
X185293000Y-65532000D03*
X185293000Y-68072000D03*
D27*
X204343000Y-69437000D03*
X204343000Y-65437000D03*
D23*
X206502000Y-38481000D03*
X203802000Y-38481000D03*
X203691500Y-27114500D03*
X206391500Y-27114500D03*
D19*
X180012000Y-30942000D03*
D28*
X178062000Y-36892000D03*
D19*
X165812000Y-36942000D03*
X165862000Y-24892000D03*
D28*
X178062000Y-24892000D03*
D29*
X170180000Y-65214500D03*
X174180000Y-65214500D03*
X174180000Y-69723000D03*
X170180000Y-69723000D03*
D30*
X220827600Y-20066000D03*
X220827600Y-72491600D03*
X151333200Y-72491600D03*
X151333200Y-20066000D03*
D31*
X158851600Y-69748400D03*
X165049200Y-72999600D03*
X172719998Y-76555600D03*
X207264000Y-46990000D03*
X205079600Y-46888400D03*
X223164400Y-30073600D03*
X213512400Y-27228800D03*
X187350400Y-17170400D03*
X176530000Y-17170400D03*
X187502800Y-75844400D03*
X200710800Y-17170400D03*
X200964800Y-24028400D03*
X201777600Y-66446400D03*
X201207964Y-34507692D03*
X203809600Y-35661600D03*
X200836252Y-28941752D03*
X207264000Y-59436000D03*
X208724500Y-55626000D03*
X205232000Y-53975000D03*
X215201500Y-34671000D03*
X189636400Y-34747200D03*
X190500000Y-30784800D03*
X197739000Y-62039500D03*
D32*
X152806400Y-20066000D02*
X155702000Y-17170400D01*
X155702000Y-17170400D02*
X176530000Y-17170400D01*
X151333200Y-20066000D02*
X152806400Y-20066000D01*
X158851600Y-68899872D02*
X158851600Y-69748400D01*
X158851600Y-68608100D02*
X158851600Y-68899872D01*
X153098500Y-62855000D02*
X158851600Y-68608100D01*
X165649199Y-73599599D02*
X165049200Y-72999600D01*
X168605200Y-76555600D02*
X165649199Y-73599599D01*
X172719998Y-76555600D02*
X168605200Y-76555600D01*
X207200500Y-46926500D02*
X207264000Y-46990000D01*
X207200500Y-43604500D02*
X207200500Y-46926500D01*
X205041500Y-46850300D02*
X205079600Y-46888400D01*
X205041500Y-43604500D02*
X205041500Y-46850300D01*
X200964800Y-24028400D02*
X210312000Y-24028400D01*
X210312000Y-24028400D02*
X213512400Y-27228800D01*
X187350400Y-17170400D02*
X176530000Y-17170400D01*
X200964800Y-24028400D02*
X200964800Y-17424400D01*
X200964800Y-17424400D02*
X200710800Y-17170400D01*
X204343000Y-65437000D02*
X202787000Y-65437000D01*
X202787000Y-65437000D02*
X201777600Y-66446400D01*
X200755000Y-35880000D02*
X200755000Y-34960656D01*
X203802000Y-35669200D02*
X203809600Y-35661600D01*
X200755000Y-34960656D02*
X201207964Y-34507692D01*
X203802000Y-38481000D02*
X203802000Y-35669200D01*
X200755000Y-29023004D02*
X200836252Y-28941752D01*
X200755000Y-30929500D02*
X200755000Y-29023004D01*
X206328000Y-61658500D02*
X206328000Y-60372000D01*
X206328000Y-60372000D02*
X207264000Y-59436000D01*
X209931000Y-60921500D02*
X208749500Y-60921500D01*
X208749500Y-60921500D02*
X207264000Y-59436000D01*
X208661000Y-54055000D02*
X209979000Y-54055000D01*
X207010000Y-54055000D02*
X208661000Y-54055000D01*
X208661000Y-54055000D02*
X208661000Y-55562500D01*
X208661000Y-55562500D02*
X208724500Y-55626000D01*
X207010000Y-54055000D02*
X205312000Y-54055000D01*
X205312000Y-54055000D02*
X205232000Y-53975000D01*
X217541000Y-34937500D02*
X215468000Y-34937500D01*
X215468000Y-34937500D02*
X215201500Y-34671000D01*
X209979000Y-54055000D02*
X210503500Y-53530500D01*
D33*
X207200500Y-40979500D02*
X207200500Y-41104500D01*
X210327500Y-39354500D02*
X208825500Y-39354500D01*
X208825500Y-39354500D02*
X207200500Y-40979500D01*
X210503500Y-39530500D02*
X210327500Y-39354500D01*
X209734400Y-72898000D02*
X212407500Y-70224900D01*
X212407500Y-70224900D02*
X212407500Y-69215000D01*
D32*
X207454500Y-67677998D02*
X207454500Y-72707500D01*
X207454500Y-72707500D02*
X207264000Y-72898000D01*
D33*
X204827499Y-75334501D02*
X207264000Y-72898000D01*
X207264000Y-72898000D02*
X209734400Y-72898000D01*
D32*
X189636400Y-34747200D02*
X189636400Y-35595728D01*
X189636400Y-35595728D02*
X191534898Y-37494226D01*
X191534898Y-37494226D02*
X191534898Y-41338500D01*
X192430400Y-27076400D02*
X188112400Y-27076400D01*
X198192400Y-27076400D02*
X192430400Y-27076400D01*
X192430400Y-27076400D02*
X192430400Y-28854400D01*
X192430400Y-28854400D02*
X190500000Y-30784800D01*
X220599000Y-33194000D02*
X219449000Y-33194000D01*
X219449000Y-33194000D02*
X219355499Y-33287501D01*
X219355499Y-33287501D02*
X215314503Y-33287501D01*
X215314503Y-33287501D02*
X207703401Y-25676399D01*
X198292400Y-27076400D02*
X198192400Y-27076400D01*
X207703401Y-25676399D02*
X199692401Y-25676399D01*
X199692401Y-25676399D02*
X198292400Y-27076400D01*
X188112400Y-27076400D02*
X187919988Y-26883988D01*
X183007000Y-36892000D02*
X178062000Y-36892000D01*
X183007000Y-36892000D02*
X184293600Y-36892000D01*
X184293600Y-36892000D02*
X190137499Y-42735899D01*
D33*
X195135500Y-65024000D02*
X195135500Y-65595500D01*
X195135500Y-53958500D02*
X195135500Y-65024000D01*
X195135500Y-65024000D02*
X195135500Y-71120000D01*
X195135500Y-71120000D02*
X193421000Y-72834500D01*
X204827499Y-75334501D02*
X194968501Y-75334501D01*
X194968501Y-75334501D02*
X193421000Y-73787000D01*
D32*
X192485000Y-65595500D02*
X195135500Y-65595500D01*
D33*
X195135500Y-53958500D02*
X194390000Y-53213000D01*
D32*
X208567998Y-66564500D02*
X207454500Y-67677998D01*
X209105500Y-66564500D02*
X208567998Y-66564500D01*
X192485000Y-65595500D02*
X192585000Y-65595500D01*
X222885000Y-33194000D02*
X220599000Y-33194000D01*
D33*
X198755000Y-53213000D02*
X194390000Y-53213000D01*
X194390000Y-53213000D02*
X192782500Y-51605500D01*
X192782500Y-51605500D02*
X190137499Y-48960499D01*
X190137499Y-48960499D02*
X190137499Y-42735899D01*
X190137499Y-42735899D02*
X191534898Y-41338500D01*
X191534898Y-41338500D02*
X195812000Y-41338500D01*
X195812000Y-41338500D02*
X197612000Y-41338500D01*
X207200500Y-41104500D02*
X205041500Y-41104500D01*
X205041500Y-41104500D02*
X202894500Y-41104500D01*
X202894500Y-41104500D02*
X202692000Y-41307000D01*
X200152000Y-41307000D02*
X202692000Y-41307000D01*
X197612000Y-41338500D02*
X200120500Y-41338500D01*
X200120500Y-41338500D02*
X200152000Y-41307000D01*
D32*
X174180000Y-69723000D02*
X176022000Y-69723000D01*
X176022000Y-69723000D02*
X177673000Y-68072000D01*
X198755000Y-31879500D02*
X198755000Y-29113800D01*
X198755000Y-29113800D02*
X200792400Y-27076400D01*
X200792400Y-27076400D02*
X200892400Y-27076400D01*
X193294000Y-32258000D02*
X198376500Y-32258000D01*
X198376500Y-32258000D02*
X198755000Y-31879500D01*
X164782500Y-59205500D02*
X164782500Y-64475500D01*
X164782500Y-64475500D02*
X170030000Y-69723000D01*
X170030000Y-69723000D02*
X170180000Y-69723000D01*
X168592500Y-47815500D02*
X164782500Y-44005500D01*
X170180000Y-65214500D02*
X170180000Y-49403000D01*
X170180000Y-49403000D02*
X168592500Y-47815500D01*
X203628000Y-51986998D02*
X203628000Y-60508500D01*
X222503500Y-40880502D02*
X213529003Y-49854999D01*
X203628000Y-60508500D02*
X203628000Y-61658500D01*
X213529003Y-49854999D02*
X205759999Y-49854999D01*
X222503500Y-39530500D02*
X222503500Y-40880502D01*
X205759999Y-49854999D02*
X203628000Y-51986998D01*
X198501000Y-66685500D02*
X198501000Y-69532500D01*
X198501000Y-69532500D02*
X198501000Y-71787000D01*
X198596500Y-69437000D02*
X198501000Y-69532500D01*
X204343000Y-69437000D02*
X198596500Y-69437000D01*
X203628000Y-61658500D02*
X203528000Y-61658500D01*
X203528000Y-61658500D02*
X198501000Y-66685500D01*
X198501000Y-71787000D02*
X198501000Y-73787000D01*
X211523001Y-67114999D02*
X210073499Y-68564501D01*
X216028003Y-67114999D02*
X211523001Y-67114999D01*
X220503500Y-62639502D02*
X216028003Y-67114999D01*
X220503500Y-53530500D02*
X220503500Y-62639502D01*
X210073499Y-68564501D02*
X211005501Y-67632499D01*
X209867500Y-69215000D02*
X209867500Y-68770500D01*
X209867500Y-68770500D02*
X210073499Y-68564501D01*
X222504000Y-58991500D02*
X222504000Y-53531000D01*
X222504000Y-53531000D02*
X222503500Y-53530500D01*
X224503500Y-62640002D02*
X224503500Y-53530500D01*
X222504000Y-64071500D02*
X223072002Y-64071500D01*
X223072002Y-64071500D02*
X224503500Y-62640002D01*
X217531000Y-57721500D02*
X216031000Y-57721500D01*
X216031000Y-57721500D02*
X212073500Y-61679000D01*
X212073500Y-61679000D02*
X212073500Y-63864500D01*
X209105500Y-63864500D02*
X212073500Y-63864500D01*
X212073500Y-63864500D02*
X212852000Y-64643000D01*
X217531000Y-57721500D02*
X216503500Y-56694000D01*
X216503500Y-56694000D02*
X216503500Y-53530500D01*
X202459598Y-36125402D02*
X202459598Y-35064398D01*
X200805000Y-37780000D02*
X202459598Y-36125402D01*
X200755000Y-37780000D02*
X200805000Y-37780000D01*
X203691500Y-33832496D02*
X203691500Y-33337500D01*
X202459598Y-35064398D02*
X203691500Y-33832496D01*
X174180000Y-65214500D02*
X177355500Y-65214500D01*
X177355500Y-65214500D02*
X177673000Y-65532000D01*
X200755000Y-32829500D02*
X201705000Y-32829500D01*
X201705000Y-32829500D02*
X203419500Y-31115000D01*
X203419500Y-31115000D02*
X203691500Y-31115000D01*
X177228500Y-65087500D02*
X177673000Y-65532000D01*
X206502000Y-38481000D02*
X207752000Y-38481000D01*
X207752000Y-38481000D02*
X208734499Y-37498501D01*
X208734499Y-37498501D02*
X208734499Y-36830499D01*
X211653501Y-36830499D02*
X209867500Y-36830499D01*
X206391500Y-33337500D02*
X206391500Y-34487500D01*
X206391500Y-34487500D02*
X208734499Y-36830499D01*
X208734499Y-36830499D02*
X209867500Y-36830499D01*
X212503500Y-39530500D02*
X212503500Y-37680498D01*
X212503500Y-37680498D02*
X211653501Y-36830499D01*
X216503500Y-39530500D02*
X216503500Y-41831304D01*
X198338999Y-61439501D02*
X197739000Y-62039500D01*
X216503500Y-41831304D02*
X209479816Y-48854988D01*
X209479816Y-48854988D02*
X205345781Y-48854988D01*
X202501500Y-57277000D02*
X198338999Y-61439501D01*
X205345781Y-48854988D02*
X202501500Y-51699269D01*
X202501500Y-51699269D02*
X202501500Y-57277000D01*
X189785000Y-65595500D02*
X185356500Y-65595500D01*
X185356500Y-65595500D02*
X185293000Y-65532000D01*
X220599000Y-35894000D02*
X220599000Y-39435000D01*
X220599000Y-39435000D02*
X220503500Y-39530500D01*
X217541000Y-31737500D02*
X219041000Y-31737500D01*
X219041000Y-31737500D02*
X219084501Y-31693999D01*
X219084501Y-31693999D02*
X224135001Y-31693999D01*
X224135001Y-31693999D02*
X224785001Y-32343999D01*
X224785001Y-32343999D02*
X224785001Y-35143999D01*
X217541000Y-32182000D02*
X217741000Y-32182000D01*
X224785001Y-35143999D02*
X224035000Y-35894000D01*
X224503500Y-39530500D02*
X224503500Y-36362500D01*
X224503500Y-36362500D02*
X224035000Y-35894000D01*
X224035000Y-35894000D02*
X222885000Y-35894000D01*
X207010000Y-51355000D02*
X211678002Y-51355000D01*
X211678002Y-51355000D02*
X212503500Y-52180498D01*
X212503500Y-52180498D02*
X212503500Y-53530500D01*
X206391500Y-31115000D02*
X206391500Y-27114500D01*
X214503500Y-39530500D02*
X214503500Y-36349998D01*
X214503500Y-36349998D02*
X211541001Y-33387499D01*
X211541001Y-33387499D02*
X208440997Y-33387499D01*
X208440997Y-33387499D02*
X207891501Y-32838003D01*
X207891501Y-32838003D02*
X207891501Y-31365001D01*
X207891501Y-31365001D02*
X207641500Y-31115000D01*
X207641500Y-31115000D02*
X206391500Y-31115000D01*
X178062000Y-24892000D02*
X181993500Y-24892000D01*
X181993500Y-24892000D02*
X193931500Y-36830000D01*
X193931500Y-36830000D02*
X198755000Y-36830000D01*
D34*
G36*
X189002499Y-42852478D02*
X189002499Y-48960499D01*
X189088896Y-49394845D01*
X189274500Y-49672621D01*
X189334933Y-49763065D01*
X191002652Y-51430784D01*
X191002192Y-51958010D01*
X191272610Y-52612472D01*
X191772895Y-53113630D01*
X192426883Y-53385190D01*
X192957521Y-53385653D01*
X194000500Y-54428632D01*
X194000500Y-64710500D01*
X193835696Y-64710500D01*
X193833157Y-64697735D01*
X193692809Y-64487691D01*
X193482765Y-64347343D01*
X193235000Y-64298060D01*
X191735000Y-64298060D01*
X191487235Y-64347343D01*
X191277191Y-64487691D01*
X191136843Y-64697735D01*
X191135000Y-64707000D01*
X191133157Y-64697735D01*
X190992809Y-64487691D01*
X190782765Y-64347343D01*
X190535000Y-64298060D01*
X189035000Y-64298060D01*
X188787235Y-64347343D01*
X188577191Y-64487691D01*
X188436843Y-64697735D01*
X188434304Y-64710500D01*
X186323937Y-64710500D01*
X186036024Y-64422084D01*
X185554718Y-64222228D01*
X185033568Y-64221774D01*
X184551914Y-64420789D01*
X184183084Y-64788976D01*
X183983228Y-65270282D01*
X183982774Y-65791432D01*
X184181789Y-66273086D01*
X184549976Y-66641916D01*
X184919337Y-66795288D01*
X184614219Y-66921672D01*
X184555458Y-67154853D01*
X185293000Y-67892395D01*
X186030542Y-67154853D01*
X185971781Y-66921672D01*
X185640680Y-66805763D01*
X186034086Y-66643211D01*
X186197081Y-66480500D01*
X188434304Y-66480500D01*
X188436843Y-66493265D01*
X188577191Y-66703309D01*
X188787235Y-66843657D01*
X189035000Y-66892940D01*
X190535000Y-66892940D01*
X190782765Y-66843657D01*
X190992809Y-66703309D01*
X191133157Y-66493265D01*
X191135000Y-66484000D01*
X191136843Y-66493265D01*
X191277191Y-66703309D01*
X191487235Y-66843657D01*
X191735000Y-66892940D01*
X193235000Y-66892940D01*
X193482765Y-66843657D01*
X193692809Y-66703309D01*
X193833157Y-66493265D01*
X193835696Y-66480500D01*
X194000500Y-66480500D01*
X194000500Y-70649868D01*
X193920289Y-70730079D01*
X193847541Y-70699872D01*
X192998185Y-70699130D01*
X192213200Y-71023480D01*
X191612091Y-71623541D01*
X191286372Y-72407959D01*
X191285630Y-73257315D01*
X191609980Y-74042300D01*
X192210041Y-74643409D01*
X192994459Y-74969128D01*
X192997999Y-74969131D01*
X194165935Y-76137067D01*
X194534155Y-76383104D01*
X194968501Y-76469501D01*
X204827499Y-76469501D01*
X205261845Y-76383104D01*
X205630065Y-76137067D01*
X207734132Y-74033000D01*
X208194532Y-74033000D01*
X208276591Y-74155809D01*
X208486635Y-74296157D01*
X208734400Y-74345440D01*
X210734400Y-74345440D01*
X210982165Y-74296157D01*
X211192209Y-74155809D01*
X211332557Y-73945765D01*
X211381840Y-73698000D01*
X211381840Y-73183750D01*
X212099400Y-73183750D01*
X212099400Y-73824310D01*
X212196073Y-74057699D01*
X212374702Y-74236327D01*
X212608091Y-74333000D01*
X213448650Y-74333000D01*
X213607400Y-74174250D01*
X213607400Y-73025000D01*
X213861400Y-73025000D01*
X213861400Y-74174250D01*
X214020150Y-74333000D01*
X214860709Y-74333000D01*
X215094098Y-74236327D01*
X215272727Y-74057699D01*
X215369400Y-73824310D01*
X215369400Y-73435823D01*
X215677847Y-73435823D01*
X216431187Y-75334673D01*
X216518508Y-75465358D01*
X217149045Y-75990550D01*
X220647995Y-72491600D01*
X217149045Y-68992650D01*
X216518508Y-69517842D01*
X215708510Y-71393223D01*
X215677847Y-73435823D01*
X215369400Y-73435823D01*
X215369400Y-73183750D01*
X215210650Y-73025000D01*
X213861400Y-73025000D01*
X213607400Y-73025000D01*
X212258150Y-73025000D01*
X212099400Y-73183750D01*
X211381840Y-73183750D01*
X211381840Y-72855692D01*
X212099400Y-72138132D01*
X212099400Y-72612250D01*
X212258150Y-72771000D01*
X213607400Y-72771000D01*
X213607400Y-71621750D01*
X213861400Y-71621750D01*
X213861400Y-72771000D01*
X215210650Y-72771000D01*
X215369400Y-72612250D01*
X215369400Y-71971690D01*
X215272727Y-71738301D01*
X215094098Y-71559673D01*
X214860709Y-71463000D01*
X214020150Y-71463000D01*
X213861400Y-71621750D01*
X213607400Y-71621750D01*
X213448650Y-71463000D01*
X212774532Y-71463000D01*
X213210066Y-71027466D01*
X213212729Y-71023480D01*
X213456103Y-70659246D01*
X213542500Y-70224900D01*
X213542500Y-70167016D01*
X213685202Y-69953447D01*
X213752317Y-70096358D01*
X214180576Y-70486645D01*
X214590610Y-70656476D01*
X214820500Y-70535155D01*
X214820500Y-69342000D01*
X215074500Y-69342000D01*
X215074500Y-70535155D01*
X215304390Y-70656476D01*
X215714424Y-70486645D01*
X216142683Y-70096358D01*
X216388986Y-69571892D01*
X216268319Y-69342000D01*
X215074500Y-69342000D01*
X214820500Y-69342000D01*
X214800500Y-69342000D01*
X214800500Y-69088000D01*
X214820500Y-69088000D01*
X214820500Y-69068000D01*
X215074500Y-69068000D01*
X215074500Y-69088000D01*
X216268319Y-69088000D01*
X216388986Y-68858108D01*
X216367824Y-68813045D01*
X217328650Y-68813045D01*
X220827600Y-72311995D01*
X224326550Y-68813045D01*
X223801358Y-68182508D01*
X221925977Y-67372510D01*
X219883377Y-67341847D01*
X217984527Y-68095187D01*
X217853842Y-68182508D01*
X217328650Y-68813045D01*
X216367824Y-68813045D01*
X216142683Y-68333642D01*
X215776579Y-67999999D01*
X216027998Y-67999999D01*
X216028003Y-68000000D01*
X216312770Y-67943355D01*
X216366678Y-67932632D01*
X216653793Y-67740789D01*
X221006560Y-63388021D01*
X221006560Y-64921500D01*
X221055843Y-65169265D01*
X221196191Y-65379309D01*
X221406235Y-65519657D01*
X221654000Y-65568940D01*
X223354000Y-65568940D01*
X223601765Y-65519657D01*
X223811809Y-65379309D01*
X223952157Y-65169265D01*
X224001440Y-64921500D01*
X224001440Y-64393642D01*
X225129287Y-63265794D01*
X225129290Y-63265792D01*
X225223000Y-63125544D01*
X225223000Y-69647011D01*
X225136692Y-69517842D01*
X224506155Y-68992650D01*
X221007205Y-72491600D01*
X224506155Y-75990550D01*
X225136692Y-75465358D01*
X225223000Y-75265530D01*
X225223000Y-76887000D01*
X223672189Y-76887000D01*
X223801358Y-76800692D01*
X224326550Y-76170155D01*
X220827600Y-72671205D01*
X217328650Y-76170155D01*
X217853842Y-76800692D01*
X218053670Y-76887000D01*
X154177789Y-76887000D01*
X154306958Y-76800692D01*
X154832150Y-76170155D01*
X151333200Y-72671205D01*
X147834250Y-76170155D01*
X148359442Y-76800692D01*
X148559270Y-76887000D01*
X146950500Y-76887000D01*
X146950500Y-75355196D01*
X147024108Y-75465358D01*
X147654645Y-75990550D01*
X151153595Y-72491600D01*
X151512805Y-72491600D01*
X155011755Y-75990550D01*
X155642292Y-75465358D01*
X156452290Y-73589977D01*
X156482953Y-71547377D01*
X155729613Y-69648527D01*
X155642292Y-69517842D01*
X155011755Y-68992650D01*
X151512805Y-72491600D01*
X151153595Y-72491600D01*
X147654645Y-68992650D01*
X147024108Y-69517842D01*
X146950500Y-69688266D01*
X146950500Y-68813045D01*
X147834250Y-68813045D01*
X151333200Y-72311995D01*
X154832150Y-68813045D01*
X154306958Y-68182508D01*
X152431577Y-67372510D01*
X150388977Y-67341847D01*
X148490127Y-68095187D01*
X148359442Y-68182508D01*
X147834250Y-68813045D01*
X146950500Y-68813045D01*
X146950500Y-65090880D01*
X151042225Y-65090880D01*
X151323921Y-65513564D01*
X152476392Y-65990294D01*
X153723572Y-65989705D01*
X154873079Y-65513564D01*
X155154775Y-65090880D01*
X153098500Y-63034605D01*
X151042225Y-65090880D01*
X146950500Y-65090880D01*
X146950500Y-62232892D01*
X149963206Y-62232892D01*
X149963795Y-63480072D01*
X150439936Y-64629579D01*
X150862620Y-64911275D01*
X152918895Y-62855000D01*
X153278105Y-62855000D01*
X155334380Y-64911275D01*
X155757064Y-64629579D01*
X156233794Y-63477108D01*
X156233205Y-62229928D01*
X155757064Y-61080421D01*
X155334380Y-60798725D01*
X153278105Y-62855000D01*
X152918895Y-62855000D01*
X150862620Y-60798725D01*
X150439936Y-61080421D01*
X149963206Y-62232892D01*
X146950500Y-62232892D01*
X146950500Y-60388500D01*
X151195921Y-60388500D01*
X151042225Y-60619120D01*
X153098500Y-62675395D01*
X155154775Y-60619120D01*
X155001079Y-60388500D01*
X155649394Y-60388500D01*
X170026697Y-74765803D01*
X170067899Y-74793333D01*
X170116500Y-74803000D01*
X183832500Y-74803000D01*
X183881101Y-74793333D01*
X183922303Y-74765803D01*
X183949833Y-74724601D01*
X183959500Y-74676000D01*
X183959500Y-68989147D01*
X184555458Y-68989147D01*
X184614219Y-69222328D01*
X185106100Y-69394522D01*
X185626434Y-69365375D01*
X185971781Y-69222328D01*
X186030542Y-68989147D01*
X185293000Y-68251605D01*
X184555458Y-68989147D01*
X183959500Y-68989147D01*
X183959500Y-67885100D01*
X183970478Y-67885100D01*
X183999625Y-68405434D01*
X184142672Y-68750781D01*
X184375853Y-68809542D01*
X185113395Y-68072000D01*
X185472605Y-68072000D01*
X186210147Y-68809542D01*
X186443328Y-68750781D01*
X186615522Y-68258900D01*
X186586375Y-67738566D01*
X186443328Y-67393219D01*
X186210147Y-67334458D01*
X185472605Y-68072000D01*
X185113395Y-68072000D01*
X184375853Y-67334458D01*
X184142672Y-67393219D01*
X183970478Y-67885100D01*
X183959500Y-67885100D01*
X183959500Y-38373228D01*
X184092884Y-37942863D01*
X189002499Y-42852478D01*
X189002499Y-42852478D01*
G37*
X189002499Y-42852478D02*
X189002499Y-48960499D01*
X189088896Y-49394845D01*
X189274500Y-49672621D01*
X189334933Y-49763065D01*
X191002652Y-51430784D01*
X191002192Y-51958010D01*
X191272610Y-52612472D01*
X191772895Y-53113630D01*
X192426883Y-53385190D01*
X192957521Y-53385653D01*
X194000500Y-54428632D01*
X194000500Y-64710500D01*
X193835696Y-64710500D01*
X193833157Y-64697735D01*
X193692809Y-64487691D01*
X193482765Y-64347343D01*
X193235000Y-64298060D01*
X191735000Y-64298060D01*
X191487235Y-64347343D01*
X191277191Y-64487691D01*
X191136843Y-64697735D01*
X191135000Y-64707000D01*
X191133157Y-64697735D01*
X190992809Y-64487691D01*
X190782765Y-64347343D01*
X190535000Y-64298060D01*
X189035000Y-64298060D01*
X188787235Y-64347343D01*
X188577191Y-64487691D01*
X188436843Y-64697735D01*
X188434304Y-64710500D01*
X186323937Y-64710500D01*
X186036024Y-64422084D01*
X185554718Y-64222228D01*
X185033568Y-64221774D01*
X184551914Y-64420789D01*
X184183084Y-64788976D01*
X183983228Y-65270282D01*
X183982774Y-65791432D01*
X184181789Y-66273086D01*
X184549976Y-66641916D01*
X184919337Y-66795288D01*
X184614219Y-66921672D01*
X184555458Y-67154853D01*
X185293000Y-67892395D01*
X186030542Y-67154853D01*
X185971781Y-66921672D01*
X185640680Y-66805763D01*
X186034086Y-66643211D01*
X186197081Y-66480500D01*
X188434304Y-66480500D01*
X188436843Y-66493265D01*
X188577191Y-66703309D01*
X188787235Y-66843657D01*
X189035000Y-66892940D01*
X190535000Y-66892940D01*
X190782765Y-66843657D01*
X190992809Y-66703309D01*
X191133157Y-66493265D01*
X191135000Y-66484000D01*
X191136843Y-66493265D01*
X191277191Y-66703309D01*
X191487235Y-66843657D01*
X191735000Y-66892940D01*
X193235000Y-66892940D01*
X193482765Y-66843657D01*
X193692809Y-66703309D01*
X193833157Y-66493265D01*
X193835696Y-66480500D01*
X194000500Y-66480500D01*
X194000500Y-70649868D01*
X193920289Y-70730079D01*
X193847541Y-70699872D01*
X192998185Y-70699130D01*
X192213200Y-71023480D01*
X191612091Y-71623541D01*
X191286372Y-72407959D01*
X191285630Y-73257315D01*
X191609980Y-74042300D01*
X192210041Y-74643409D01*
X192994459Y-74969128D01*
X192997999Y-74969131D01*
X194165935Y-76137067D01*
X194534155Y-76383104D01*
X194968501Y-76469501D01*
X204827499Y-76469501D01*
X205261845Y-76383104D01*
X205630065Y-76137067D01*
X207734132Y-74033000D01*
X208194532Y-74033000D01*
X208276591Y-74155809D01*
X208486635Y-74296157D01*
X208734400Y-74345440D01*
X210734400Y-74345440D01*
X210982165Y-74296157D01*
X211192209Y-74155809D01*
X211332557Y-73945765D01*
X211381840Y-73698000D01*
X211381840Y-73183750D01*
X212099400Y-73183750D01*
X212099400Y-73824310D01*
X212196073Y-74057699D01*
X212374702Y-74236327D01*
X212608091Y-74333000D01*
X213448650Y-74333000D01*
X213607400Y-74174250D01*
X213607400Y-73025000D01*
X213861400Y-73025000D01*
X213861400Y-74174250D01*
X214020150Y-74333000D01*
X214860709Y-74333000D01*
X215094098Y-74236327D01*
X215272727Y-74057699D01*
X215369400Y-73824310D01*
X215369400Y-73435823D01*
X215677847Y-73435823D01*
X216431187Y-75334673D01*
X216518508Y-75465358D01*
X217149045Y-75990550D01*
X220647995Y-72491600D01*
X217149045Y-68992650D01*
X216518508Y-69517842D01*
X215708510Y-71393223D01*
X215677847Y-73435823D01*
X215369400Y-73435823D01*
X215369400Y-73183750D01*
X215210650Y-73025000D01*
X213861400Y-73025000D01*
X213607400Y-73025000D01*
X212258150Y-73025000D01*
X212099400Y-73183750D01*
X211381840Y-73183750D01*
X211381840Y-72855692D01*
X212099400Y-72138132D01*
X212099400Y-72612250D01*
X212258150Y-72771000D01*
X213607400Y-72771000D01*
X213607400Y-71621750D01*
X213861400Y-71621750D01*
X213861400Y-72771000D01*
X215210650Y-72771000D01*
X215369400Y-72612250D01*
X215369400Y-71971690D01*
X215272727Y-71738301D01*
X215094098Y-71559673D01*
X214860709Y-71463000D01*
X214020150Y-71463000D01*
X213861400Y-71621750D01*
X213607400Y-71621750D01*
X213448650Y-71463000D01*
X212774532Y-71463000D01*
X213210066Y-71027466D01*
X213212729Y-71023480D01*
X213456103Y-70659246D01*
X213542500Y-70224900D01*
X213542500Y-70167016D01*
X213685202Y-69953447D01*
X213752317Y-70096358D01*
X214180576Y-70486645D01*
X214590610Y-70656476D01*
X214820500Y-70535155D01*
X214820500Y-69342000D01*
X215074500Y-69342000D01*
X215074500Y-70535155D01*
X215304390Y-70656476D01*
X215714424Y-70486645D01*
X216142683Y-70096358D01*
X216388986Y-69571892D01*
X216268319Y-69342000D01*
X215074500Y-69342000D01*
X214820500Y-69342000D01*
X214800500Y-69342000D01*
X214800500Y-69088000D01*
X214820500Y-69088000D01*
X214820500Y-69068000D01*
X215074500Y-69068000D01*
X215074500Y-69088000D01*
X216268319Y-69088000D01*
X216388986Y-68858108D01*
X216367824Y-68813045D01*
X217328650Y-68813045D01*
X220827600Y-72311995D01*
X224326550Y-68813045D01*
X223801358Y-68182508D01*
X221925977Y-67372510D01*
X219883377Y-67341847D01*
X217984527Y-68095187D01*
X217853842Y-68182508D01*
X217328650Y-68813045D01*
X216367824Y-68813045D01*
X216142683Y-68333642D01*
X215776579Y-67999999D01*
X216027998Y-67999999D01*
X216028003Y-68000000D01*
X216312770Y-67943355D01*
X216366678Y-67932632D01*
X216653793Y-67740789D01*
X221006560Y-63388021D01*
X221006560Y-64921500D01*
X221055843Y-65169265D01*
X221196191Y-65379309D01*
X221406235Y-65519657D01*
X221654000Y-65568940D01*
X223354000Y-65568940D01*
X223601765Y-65519657D01*
X223811809Y-65379309D01*
X223952157Y-65169265D01*
X224001440Y-64921500D01*
X224001440Y-64393642D01*
X225129287Y-63265794D01*
X225129290Y-63265792D01*
X225223000Y-63125544D01*
X225223000Y-69647011D01*
X225136692Y-69517842D01*
X224506155Y-68992650D01*
X221007205Y-72491600D01*
X224506155Y-75990550D01*
X225136692Y-75465358D01*
X225223000Y-75265530D01*
X225223000Y-76887000D01*
X223672189Y-76887000D01*
X223801358Y-76800692D01*
X224326550Y-76170155D01*
X220827600Y-72671205D01*
X217328650Y-76170155D01*
X217853842Y-76800692D01*
X218053670Y-76887000D01*
X154177789Y-76887000D01*
X154306958Y-76800692D01*
X154832150Y-76170155D01*
X151333200Y-72671205D01*
X147834250Y-76170155D01*
X148359442Y-76800692D01*
X148559270Y-76887000D01*
X146950500Y-76887000D01*
X146950500Y-75355196D01*
X147024108Y-75465358D01*
X147654645Y-75990550D01*
X151153595Y-72491600D01*
X151512805Y-72491600D01*
X155011755Y-75990550D01*
X155642292Y-75465358D01*
X156452290Y-73589977D01*
X156482953Y-71547377D01*
X155729613Y-69648527D01*
X155642292Y-69517842D01*
X155011755Y-68992650D01*
X151512805Y-72491600D01*
X151153595Y-72491600D01*
X147654645Y-68992650D01*
X147024108Y-69517842D01*
X146950500Y-69688266D01*
X146950500Y-68813045D01*
X147834250Y-68813045D01*
X151333200Y-72311995D01*
X154832150Y-68813045D01*
X154306958Y-68182508D01*
X152431577Y-67372510D01*
X150388977Y-67341847D01*
X148490127Y-68095187D01*
X148359442Y-68182508D01*
X147834250Y-68813045D01*
X146950500Y-68813045D01*
X146950500Y-65090880D01*
X151042225Y-65090880D01*
X151323921Y-65513564D01*
X152476392Y-65990294D01*
X153723572Y-65989705D01*
X154873079Y-65513564D01*
X155154775Y-65090880D01*
X153098500Y-63034605D01*
X151042225Y-65090880D01*
X146950500Y-65090880D01*
X146950500Y-62232892D01*
X149963206Y-62232892D01*
X149963795Y-63480072D01*
X150439936Y-64629579D01*
X150862620Y-64911275D01*
X152918895Y-62855000D01*
X153278105Y-62855000D01*
X155334380Y-64911275D01*
X155757064Y-64629579D01*
X156233794Y-63477108D01*
X156233205Y-62229928D01*
X155757064Y-61080421D01*
X155334380Y-60798725D01*
X153278105Y-62855000D01*
X152918895Y-62855000D01*
X150862620Y-60798725D01*
X150439936Y-61080421D01*
X149963206Y-62232892D01*
X146950500Y-62232892D01*
X146950500Y-60388500D01*
X151195921Y-60388500D01*
X151042225Y-60619120D01*
X153098500Y-62675395D01*
X155154775Y-60619120D01*
X155001079Y-60388500D01*
X155649394Y-60388500D01*
X170026697Y-74765803D01*
X170067899Y-74793333D01*
X170116500Y-74803000D01*
X183832500Y-74803000D01*
X183881101Y-74793333D01*
X183922303Y-74765803D01*
X183949833Y-74724601D01*
X183959500Y-74676000D01*
X183959500Y-68989147D01*
X184555458Y-68989147D01*
X184614219Y-69222328D01*
X185106100Y-69394522D01*
X185626434Y-69365375D01*
X185971781Y-69222328D01*
X186030542Y-68989147D01*
X185293000Y-68251605D01*
X184555458Y-68989147D01*
X183959500Y-68989147D01*
X183959500Y-67885100D01*
X183970478Y-67885100D01*
X183999625Y-68405434D01*
X184142672Y-68750781D01*
X184375853Y-68809542D01*
X185113395Y-68072000D01*
X185472605Y-68072000D01*
X186210147Y-68809542D01*
X186443328Y-68750781D01*
X186615522Y-68258900D01*
X186586375Y-67738566D01*
X186443328Y-67393219D01*
X186210147Y-67334458D01*
X185472605Y-68072000D01*
X185113395Y-68072000D01*
X184375853Y-67334458D01*
X184142672Y-67393219D01*
X183970478Y-67885100D01*
X183959500Y-67885100D01*
X183959500Y-38373228D01*
X184092884Y-37942863D01*
X189002499Y-42852478D01*
G36*
X205712560Y-52105000D02*
X205761843Y-52352765D01*
X205902191Y-52562809D01*
X206112235Y-52703157D01*
X206140209Y-52708721D01*
X206000301Y-52766673D01*
X205821673Y-52945302D01*
X205725000Y-53178691D01*
X205725000Y-53769250D01*
X205883750Y-53928000D01*
X206883000Y-53928000D01*
X206883000Y-53908000D01*
X207137000Y-53908000D01*
X207137000Y-53928000D01*
X208136250Y-53928000D01*
X208295000Y-53769250D01*
X208295000Y-53178691D01*
X208198327Y-52945302D01*
X208107217Y-52854191D01*
X209318500Y-52854191D01*
X209318500Y-53944750D01*
X209477250Y-54103500D01*
X210376500Y-54103500D01*
X210376500Y-52504250D01*
X210217750Y-52345500D01*
X209827190Y-52345500D01*
X209593801Y-52442173D01*
X209415173Y-52620802D01*
X209318500Y-52854191D01*
X208107217Y-52854191D01*
X208019699Y-52766673D01*
X207879791Y-52708721D01*
X207907765Y-52703157D01*
X208117809Y-52562809D01*
X208258157Y-52352765D01*
X208280587Y-52240000D01*
X211311422Y-52240000D01*
X211495059Y-52423637D01*
X211454846Y-52483820D01*
X211413199Y-52442173D01*
X211179810Y-52345500D01*
X210789250Y-52345500D01*
X210630500Y-52504250D01*
X210630500Y-54103500D01*
X210650500Y-54103500D01*
X210650500Y-54357500D01*
X210630500Y-54357500D01*
X210630500Y-55956750D01*
X210789250Y-56115500D01*
X211179810Y-56115500D01*
X211413199Y-56018827D01*
X211554453Y-55877573D01*
X211705735Y-55978657D01*
X211953500Y-56027940D01*
X213053500Y-56027940D01*
X213301265Y-55978657D01*
X213454318Y-55876390D01*
X213495691Y-55938309D01*
X213705735Y-56078657D01*
X213953500Y-56127940D01*
X215053500Y-56127940D01*
X215301265Y-56078657D01*
X215503500Y-55943527D01*
X215618500Y-56020368D01*
X215618500Y-56693995D01*
X215618499Y-56694000D01*
X215646845Y-56836500D01*
X215664009Y-56922787D01*
X215405210Y-57095710D01*
X215405208Y-57095713D01*
X211447710Y-61053210D01*
X211433391Y-61074641D01*
X211407250Y-61048500D01*
X210058000Y-61048500D01*
X210058000Y-62197750D01*
X210216750Y-62356500D01*
X211057309Y-62356500D01*
X211188500Y-62302159D01*
X211188500Y-62979500D01*
X210376087Y-62979500D01*
X210353657Y-62866735D01*
X210213309Y-62656691D01*
X210003265Y-62516343D01*
X209755500Y-62467060D01*
X208455500Y-62467060D01*
X208207735Y-62516343D01*
X207997691Y-62656691D01*
X207857343Y-62866735D01*
X207808060Y-63114500D01*
X207808060Y-64614500D01*
X207857343Y-64862265D01*
X207997691Y-65072309D01*
X208207735Y-65212657D01*
X208217000Y-65214500D01*
X208207735Y-65216343D01*
X207997691Y-65356691D01*
X207857343Y-65566735D01*
X207808060Y-65814500D01*
X207808060Y-66072859D01*
X206828710Y-67052208D01*
X206636867Y-67339323D01*
X206636867Y-67339324D01*
X206569499Y-67677998D01*
X206569500Y-67678003D01*
X206569500Y-72023227D01*
X206481973Y-72081710D01*
X206461434Y-72095434D01*
X204357367Y-74199501D01*
X200648440Y-74199501D01*
X200648440Y-71334500D01*
X200599157Y-71086735D01*
X200458809Y-70876691D01*
X200248765Y-70736343D01*
X200001000Y-70687060D01*
X199386000Y-70687060D01*
X199386000Y-70322000D01*
X202795560Y-70322000D01*
X202795560Y-70687000D01*
X202844843Y-70934765D01*
X202985191Y-71144809D01*
X203195235Y-71285157D01*
X203443000Y-71334440D01*
X205243000Y-71334440D01*
X205490765Y-71285157D01*
X205700809Y-71144809D01*
X205841157Y-70934765D01*
X205890440Y-70687000D01*
X205890440Y-68187000D01*
X205841157Y-67939235D01*
X205700809Y-67729191D01*
X205490765Y-67588843D01*
X205243000Y-67539560D01*
X203443000Y-67539560D01*
X203195235Y-67588843D01*
X202985191Y-67729191D01*
X202844843Y-67939235D01*
X202795560Y-68187000D01*
X202795560Y-68552000D01*
X199386000Y-68552000D01*
X199386000Y-67052080D01*
X200715329Y-65722750D01*
X202808000Y-65722750D01*
X202808000Y-66813309D01*
X202904673Y-67046698D01*
X203083301Y-67225327D01*
X203316690Y-67322000D01*
X204057250Y-67322000D01*
X204216000Y-67163250D01*
X204216000Y-65564000D01*
X204470000Y-65564000D01*
X204470000Y-67163250D01*
X204628750Y-67322000D01*
X205369310Y-67322000D01*
X205602699Y-67225327D01*
X205781327Y-67046698D01*
X205878000Y-66813309D01*
X205878000Y-65722750D01*
X205719250Y-65564000D01*
X204470000Y-65564000D01*
X204216000Y-65564000D01*
X202966750Y-65564000D01*
X202808000Y-65722750D01*
X200715329Y-65722750D01*
X202377388Y-64060691D01*
X202808000Y-64060691D01*
X202808000Y-65151250D01*
X202966750Y-65310000D01*
X204216000Y-65310000D01*
X204216000Y-63710750D01*
X204470000Y-63710750D01*
X204470000Y-65310000D01*
X205719250Y-65310000D01*
X205878000Y-65151250D01*
X205878000Y-64060691D01*
X205781327Y-63827302D01*
X205602699Y-63648673D01*
X205369310Y-63552000D01*
X204628750Y-63552000D01*
X204470000Y-63710750D01*
X204216000Y-63710750D01*
X204057250Y-63552000D01*
X203316690Y-63552000D01*
X203083301Y-63648673D01*
X202904673Y-63827302D01*
X202808000Y-64060691D01*
X202377388Y-64060691D01*
X203482139Y-62955940D01*
X204378000Y-62955940D01*
X204625765Y-62906657D01*
X204835809Y-62766309D01*
X204976157Y-62556265D01*
X204981721Y-62528291D01*
X205039673Y-62668199D01*
X205218302Y-62846827D01*
X205451691Y-62943500D01*
X206042250Y-62943500D01*
X206201000Y-62784750D01*
X206201000Y-61785500D01*
X206455000Y-61785500D01*
X206455000Y-62784750D01*
X206613750Y-62943500D01*
X207204309Y-62943500D01*
X207437698Y-62846827D01*
X207616327Y-62668199D01*
X207713000Y-62434810D01*
X207713000Y-61944250D01*
X207554250Y-61785500D01*
X206455000Y-61785500D01*
X206201000Y-61785500D01*
X206181000Y-61785500D01*
X206181000Y-61531500D01*
X206201000Y-61531500D01*
X206201000Y-60532250D01*
X206455000Y-60532250D01*
X206455000Y-61531500D01*
X207554250Y-61531500D01*
X207713000Y-61372750D01*
X207713000Y-61207250D01*
X208296000Y-61207250D01*
X208296000Y-61847810D01*
X208392673Y-62081199D01*
X208571302Y-62259827D01*
X208804691Y-62356500D01*
X209645250Y-62356500D01*
X209804000Y-62197750D01*
X209804000Y-61048500D01*
X208454750Y-61048500D01*
X208296000Y-61207250D01*
X207713000Y-61207250D01*
X207713000Y-60882190D01*
X207616327Y-60648801D01*
X207437698Y-60470173D01*
X207204309Y-60373500D01*
X206613750Y-60373500D01*
X206455000Y-60532250D01*
X206201000Y-60532250D01*
X206042250Y-60373500D01*
X205451691Y-60373500D01*
X205218302Y-60470173D01*
X205039673Y-60648801D01*
X204981721Y-60788709D01*
X204976157Y-60760735D01*
X204835809Y-60550691D01*
X204625765Y-60410343D01*
X204513000Y-60387913D01*
X204513000Y-59995190D01*
X208296000Y-59995190D01*
X208296000Y-60635750D01*
X208454750Y-60794500D01*
X209804000Y-60794500D01*
X209804000Y-59645250D01*
X210058000Y-59645250D01*
X210058000Y-60794500D01*
X211407250Y-60794500D01*
X211566000Y-60635750D01*
X211566000Y-59995190D01*
X211469327Y-59761801D01*
X211290698Y-59583173D01*
X211057309Y-59486500D01*
X210216750Y-59486500D01*
X210058000Y-59645250D01*
X209804000Y-59645250D01*
X209645250Y-59486500D01*
X208804691Y-59486500D01*
X208571302Y-59583173D01*
X208392673Y-59761801D01*
X208296000Y-59995190D01*
X204513000Y-59995190D01*
X204513000Y-56921500D01*
X208283560Y-56921500D01*
X208283560Y-58521500D01*
X208332843Y-58769265D01*
X208473191Y-58979309D01*
X208683235Y-59119657D01*
X208931000Y-59168940D01*
X210931000Y-59168940D01*
X211178765Y-59119657D01*
X211388809Y-58979309D01*
X211529157Y-58769265D01*
X211578440Y-58521500D01*
X211578440Y-56921500D01*
X211529157Y-56673735D01*
X211388809Y-56463691D01*
X211178765Y-56323343D01*
X210931000Y-56274060D01*
X208931000Y-56274060D01*
X208683235Y-56323343D01*
X208473191Y-56463691D01*
X208332843Y-56673735D01*
X208283560Y-56921500D01*
X204513000Y-56921500D01*
X204513000Y-54340750D01*
X205725000Y-54340750D01*
X205725000Y-54931309D01*
X205821673Y-55164698D01*
X206000301Y-55343327D01*
X206233690Y-55440000D01*
X206724250Y-55440000D01*
X206883000Y-55281250D01*
X206883000Y-54182000D01*
X207137000Y-54182000D01*
X207137000Y-55281250D01*
X207295750Y-55440000D01*
X207786310Y-55440000D01*
X208019699Y-55343327D01*
X208198327Y-55164698D01*
X208295000Y-54931309D01*
X208295000Y-54516250D01*
X209318500Y-54516250D01*
X209318500Y-55606809D01*
X209415173Y-55840198D01*
X209593801Y-56018827D01*
X209827190Y-56115500D01*
X210217750Y-56115500D01*
X210376500Y-55956750D01*
X210376500Y-54357500D01*
X209477250Y-54357500D01*
X209318500Y-54516250D01*
X208295000Y-54516250D01*
X208295000Y-54340750D01*
X208136250Y-54182000D01*
X207137000Y-54182000D01*
X206883000Y-54182000D01*
X205883750Y-54182000D01*
X205725000Y-54340750D01*
X204513000Y-54340750D01*
X204513000Y-52353578D01*
X205712560Y-51154017D01*
X205712560Y-52105000D01*
X205712560Y-52105000D01*
G37*
X205712560Y-52105000D02*
X205761843Y-52352765D01*
X205902191Y-52562809D01*
X206112235Y-52703157D01*
X206140209Y-52708721D01*
X206000301Y-52766673D01*
X205821673Y-52945302D01*
X205725000Y-53178691D01*
X205725000Y-53769250D01*
X205883750Y-53928000D01*
X206883000Y-53928000D01*
X206883000Y-53908000D01*
X207137000Y-53908000D01*
X207137000Y-53928000D01*
X208136250Y-53928000D01*
X208295000Y-53769250D01*
X208295000Y-53178691D01*
X208198327Y-52945302D01*
X208107217Y-52854191D01*
X209318500Y-52854191D01*
X209318500Y-53944750D01*
X209477250Y-54103500D01*
X210376500Y-54103500D01*
X210376500Y-52504250D01*
X210217750Y-52345500D01*
X209827190Y-52345500D01*
X209593801Y-52442173D01*
X209415173Y-52620802D01*
X209318500Y-52854191D01*
X208107217Y-52854191D01*
X208019699Y-52766673D01*
X207879791Y-52708721D01*
X207907765Y-52703157D01*
X208117809Y-52562809D01*
X208258157Y-52352765D01*
X208280587Y-52240000D01*
X211311422Y-52240000D01*
X211495059Y-52423637D01*
X211454846Y-52483820D01*
X211413199Y-52442173D01*
X211179810Y-52345500D01*
X210789250Y-52345500D01*
X210630500Y-52504250D01*
X210630500Y-54103500D01*
X210650500Y-54103500D01*
X210650500Y-54357500D01*
X210630500Y-54357500D01*
X210630500Y-55956750D01*
X210789250Y-56115500D01*
X211179810Y-56115500D01*
X211413199Y-56018827D01*
X211554453Y-55877573D01*
X211705735Y-55978657D01*
X211953500Y-56027940D01*
X213053500Y-56027940D01*
X213301265Y-55978657D01*
X213454318Y-55876390D01*
X213495691Y-55938309D01*
X213705735Y-56078657D01*
X213953500Y-56127940D01*
X215053500Y-56127940D01*
X215301265Y-56078657D01*
X215503500Y-55943527D01*
X215618500Y-56020368D01*
X215618500Y-56693995D01*
X215618499Y-56694000D01*
X215646845Y-56836500D01*
X215664009Y-56922787D01*
X215405210Y-57095710D01*
X215405208Y-57095713D01*
X211447710Y-61053210D01*
X211433391Y-61074641D01*
X211407250Y-61048500D01*
X210058000Y-61048500D01*
X210058000Y-62197750D01*
X210216750Y-62356500D01*
X211057309Y-62356500D01*
X211188500Y-62302159D01*
X211188500Y-62979500D01*
X210376087Y-62979500D01*
X210353657Y-62866735D01*
X210213309Y-62656691D01*
X210003265Y-62516343D01*
X209755500Y-62467060D01*
X208455500Y-62467060D01*
X208207735Y-62516343D01*
X207997691Y-62656691D01*
X207857343Y-62866735D01*
X207808060Y-63114500D01*
X207808060Y-64614500D01*
X207857343Y-64862265D01*
X207997691Y-65072309D01*
X208207735Y-65212657D01*
X208217000Y-65214500D01*
X208207735Y-65216343D01*
X207997691Y-65356691D01*
X207857343Y-65566735D01*
X207808060Y-65814500D01*
X207808060Y-66072859D01*
X206828710Y-67052208D01*
X206636867Y-67339323D01*
X206636867Y-67339324D01*
X206569499Y-67677998D01*
X206569500Y-67678003D01*
X206569500Y-72023227D01*
X206481973Y-72081710D01*
X206461434Y-72095434D01*
X204357367Y-74199501D01*
X200648440Y-74199501D01*
X200648440Y-71334500D01*
X200599157Y-71086735D01*
X200458809Y-70876691D01*
X200248765Y-70736343D01*
X200001000Y-70687060D01*
X199386000Y-70687060D01*
X199386000Y-70322000D01*
X202795560Y-70322000D01*
X202795560Y-70687000D01*
X202844843Y-70934765D01*
X202985191Y-71144809D01*
X203195235Y-71285157D01*
X203443000Y-71334440D01*
X205243000Y-71334440D01*
X205490765Y-71285157D01*
X205700809Y-71144809D01*
X205841157Y-70934765D01*
X205890440Y-70687000D01*
X205890440Y-68187000D01*
X205841157Y-67939235D01*
X205700809Y-67729191D01*
X205490765Y-67588843D01*
X205243000Y-67539560D01*
X203443000Y-67539560D01*
X203195235Y-67588843D01*
X202985191Y-67729191D01*
X202844843Y-67939235D01*
X202795560Y-68187000D01*
X202795560Y-68552000D01*
X199386000Y-68552000D01*
X199386000Y-67052080D01*
X200715329Y-65722750D01*
X202808000Y-65722750D01*
X202808000Y-66813309D01*
X202904673Y-67046698D01*
X203083301Y-67225327D01*
X203316690Y-67322000D01*
X204057250Y-67322000D01*
X204216000Y-67163250D01*
X204216000Y-65564000D01*
X204470000Y-65564000D01*
X204470000Y-67163250D01*
X204628750Y-67322000D01*
X205369310Y-67322000D01*
X205602699Y-67225327D01*
X205781327Y-67046698D01*
X205878000Y-66813309D01*
X205878000Y-65722750D01*
X205719250Y-65564000D01*
X204470000Y-65564000D01*
X204216000Y-65564000D01*
X202966750Y-65564000D01*
X202808000Y-65722750D01*
X200715329Y-65722750D01*
X202377388Y-64060691D01*
X202808000Y-64060691D01*
X202808000Y-65151250D01*
X202966750Y-65310000D01*
X204216000Y-65310000D01*
X204216000Y-63710750D01*
X204470000Y-63710750D01*
X204470000Y-65310000D01*
X205719250Y-65310000D01*
X205878000Y-65151250D01*
X205878000Y-64060691D01*
X205781327Y-63827302D01*
X205602699Y-63648673D01*
X205369310Y-63552000D01*
X204628750Y-63552000D01*
X204470000Y-63710750D01*
X204216000Y-63710750D01*
X204057250Y-63552000D01*
X203316690Y-63552000D01*
X203083301Y-63648673D01*
X202904673Y-63827302D01*
X202808000Y-64060691D01*
X202377388Y-64060691D01*
X203482139Y-62955940D01*
X204378000Y-62955940D01*
X204625765Y-62906657D01*
X204835809Y-62766309D01*
X204976157Y-62556265D01*
X204981721Y-62528291D01*
X205039673Y-62668199D01*
X205218302Y-62846827D01*
X205451691Y-62943500D01*
X206042250Y-62943500D01*
X206201000Y-62784750D01*
X206201000Y-61785500D01*
X206455000Y-61785500D01*
X206455000Y-62784750D01*
X206613750Y-62943500D01*
X207204309Y-62943500D01*
X207437698Y-62846827D01*
X207616327Y-62668199D01*
X207713000Y-62434810D01*
X207713000Y-61944250D01*
X207554250Y-61785500D01*
X206455000Y-61785500D01*
X206201000Y-61785500D01*
X206181000Y-61785500D01*
X206181000Y-61531500D01*
X206201000Y-61531500D01*
X206201000Y-60532250D01*
X206455000Y-60532250D01*
X206455000Y-61531500D01*
X207554250Y-61531500D01*
X207713000Y-61372750D01*
X207713000Y-61207250D01*
X208296000Y-61207250D01*
X208296000Y-61847810D01*
X208392673Y-62081199D01*
X208571302Y-62259827D01*
X208804691Y-62356500D01*
X209645250Y-62356500D01*
X209804000Y-62197750D01*
X209804000Y-61048500D01*
X208454750Y-61048500D01*
X208296000Y-61207250D01*
X207713000Y-61207250D01*
X207713000Y-60882190D01*
X207616327Y-60648801D01*
X207437698Y-60470173D01*
X207204309Y-60373500D01*
X206613750Y-60373500D01*
X206455000Y-60532250D01*
X206201000Y-60532250D01*
X206042250Y-60373500D01*
X205451691Y-60373500D01*
X205218302Y-60470173D01*
X205039673Y-60648801D01*
X204981721Y-60788709D01*
X204976157Y-60760735D01*
X204835809Y-60550691D01*
X204625765Y-60410343D01*
X204513000Y-60387913D01*
X204513000Y-59995190D01*
X208296000Y-59995190D01*
X208296000Y-60635750D01*
X208454750Y-60794500D01*
X209804000Y-60794500D01*
X209804000Y-59645250D01*
X210058000Y-59645250D01*
X210058000Y-60794500D01*
X211407250Y-60794500D01*
X211566000Y-60635750D01*
X211566000Y-59995190D01*
X211469327Y-59761801D01*
X211290698Y-59583173D01*
X211057309Y-59486500D01*
X210216750Y-59486500D01*
X210058000Y-59645250D01*
X209804000Y-59645250D01*
X209645250Y-59486500D01*
X208804691Y-59486500D01*
X208571302Y-59583173D01*
X208392673Y-59761801D01*
X208296000Y-59995190D01*
X204513000Y-59995190D01*
X204513000Y-56921500D01*
X208283560Y-56921500D01*
X208283560Y-58521500D01*
X208332843Y-58769265D01*
X208473191Y-58979309D01*
X208683235Y-59119657D01*
X208931000Y-59168940D01*
X210931000Y-59168940D01*
X211178765Y-59119657D01*
X211388809Y-58979309D01*
X211529157Y-58769265D01*
X211578440Y-58521500D01*
X211578440Y-56921500D01*
X211529157Y-56673735D01*
X211388809Y-56463691D01*
X211178765Y-56323343D01*
X210931000Y-56274060D01*
X208931000Y-56274060D01*
X208683235Y-56323343D01*
X208473191Y-56463691D01*
X208332843Y-56673735D01*
X208283560Y-56921500D01*
X204513000Y-56921500D01*
X204513000Y-54340750D01*
X205725000Y-54340750D01*
X205725000Y-54931309D01*
X205821673Y-55164698D01*
X206000301Y-55343327D01*
X206233690Y-55440000D01*
X206724250Y-55440000D01*
X206883000Y-55281250D01*
X206883000Y-54182000D01*
X207137000Y-54182000D01*
X207137000Y-55281250D01*
X207295750Y-55440000D01*
X207786310Y-55440000D01*
X208019699Y-55343327D01*
X208198327Y-55164698D01*
X208295000Y-54931309D01*
X208295000Y-54516250D01*
X209318500Y-54516250D01*
X209318500Y-55606809D01*
X209415173Y-55840198D01*
X209593801Y-56018827D01*
X209827190Y-56115500D01*
X210217750Y-56115500D01*
X210376500Y-55956750D01*
X210376500Y-54357500D01*
X209477250Y-54357500D01*
X209318500Y-54516250D01*
X208295000Y-54516250D01*
X208295000Y-54340750D01*
X208136250Y-54182000D01*
X207137000Y-54182000D01*
X206883000Y-54182000D01*
X205883750Y-54182000D01*
X205725000Y-54340750D01*
X204513000Y-54340750D01*
X204513000Y-52353578D01*
X205712560Y-51154017D01*
X205712560Y-52105000D01*
G36*
X209495691Y-40538309D02*
X209705735Y-40678657D01*
X209953500Y-40727940D01*
X211053500Y-40727940D01*
X211301265Y-40678657D01*
X211503500Y-40543527D01*
X211705735Y-40678657D01*
X211953500Y-40727940D01*
X213053500Y-40727940D01*
X213301265Y-40678657D01*
X213503500Y-40543527D01*
X213705735Y-40678657D01*
X213953500Y-40727940D01*
X215053500Y-40727940D01*
X215301265Y-40678657D01*
X215503500Y-40543527D01*
X215618500Y-40620368D01*
X215618500Y-41464725D01*
X209113236Y-47969988D01*
X205345786Y-47969988D01*
X205345781Y-47969987D01*
X205063297Y-48026178D01*
X205007106Y-48037355D01*
X204719991Y-48229198D01*
X204719989Y-48229201D01*
X201875710Y-51073479D01*
X201683867Y-51360594D01*
X201683867Y-51360595D01*
X201616499Y-51699269D01*
X201616500Y-51699274D01*
X201616500Y-56910421D01*
X197722435Y-60804485D01*
X197494421Y-60804286D01*
X197040343Y-60991908D01*
X196692629Y-61339015D01*
X196504215Y-61792766D01*
X196503786Y-62284079D01*
X196691408Y-62738157D01*
X197038515Y-63085871D01*
X197492266Y-63274285D01*
X197983579Y-63274714D01*
X198437657Y-63087092D01*
X198785371Y-62739985D01*
X198973785Y-62286234D01*
X198973986Y-62056094D01*
X202743000Y-58287079D01*
X202743000Y-60387913D01*
X202630235Y-60410343D01*
X202420191Y-60550691D01*
X202279843Y-60760735D01*
X202230560Y-61008500D01*
X202230560Y-61704361D01*
X197875210Y-66059710D01*
X197683367Y-66346825D01*
X197673174Y-66398066D01*
X197615999Y-66685500D01*
X197616000Y-66685505D01*
X197616000Y-69532495D01*
X197615999Y-69532500D01*
X197616000Y-69532505D01*
X197616000Y-70687060D01*
X197001000Y-70687060D01*
X196753235Y-70736343D01*
X196543191Y-70876691D01*
X196402843Y-71086735D01*
X196353560Y-71334500D01*
X196353560Y-74199501D01*
X195438633Y-74199501D01*
X195245953Y-74006821D01*
X195555628Y-73261041D01*
X195556370Y-72411685D01*
X195524961Y-72335671D01*
X195938066Y-71922566D01*
X196028648Y-71787000D01*
X196184103Y-71554346D01*
X196270500Y-71120000D01*
X196270500Y-54348000D01*
X197331723Y-54348000D01*
X197447191Y-54520809D01*
X197657235Y-54661157D01*
X197905000Y-54710440D01*
X199605000Y-54710440D01*
X199852765Y-54661157D01*
X200062809Y-54520809D01*
X200203157Y-54310765D01*
X200252440Y-54063000D01*
X200252440Y-52363000D01*
X200203157Y-52115235D01*
X200062809Y-51905191D01*
X199852765Y-51764843D01*
X199749292Y-51744261D01*
X200026645Y-51439924D01*
X200196476Y-51029890D01*
X200075155Y-50800000D01*
X198882000Y-50800000D01*
X198882000Y-50820000D01*
X198628000Y-50820000D01*
X198628000Y-50800000D01*
X197434845Y-50800000D01*
X197313524Y-51029890D01*
X197483355Y-51439924D01*
X197760708Y-51744261D01*
X197657235Y-51764843D01*
X197447191Y-51905191D01*
X197331723Y-52078000D01*
X194860132Y-52078000D01*
X194562348Y-51780216D01*
X194562808Y-51252990D01*
X194292390Y-50598528D01*
X194010464Y-50316110D01*
X197313524Y-50316110D01*
X197434845Y-50546000D01*
X198628000Y-50546000D01*
X198628000Y-49352181D01*
X198882000Y-49352181D01*
X198882000Y-50546000D01*
X200075155Y-50546000D01*
X200196476Y-50316110D01*
X200026645Y-49906076D01*
X199636358Y-49477817D01*
X199111892Y-49231514D01*
X198882000Y-49352181D01*
X198628000Y-49352181D01*
X198398108Y-49231514D01*
X197873642Y-49477817D01*
X197483355Y-49906076D01*
X197313524Y-50316110D01*
X194010464Y-50316110D01*
X193792105Y-50097370D01*
X193138117Y-49825810D01*
X192607479Y-49825347D01*
X191272499Y-48490367D01*
X191272499Y-45262909D01*
X191704696Y-45262909D01*
X191821105Y-45544812D01*
X192483356Y-45795549D01*
X193191149Y-45773767D01*
X193552114Y-45624250D01*
X196177000Y-45624250D01*
X196177000Y-46464809D01*
X196273673Y-46698198D01*
X196452301Y-46876827D01*
X196685690Y-46973500D01*
X197326250Y-46973500D01*
X197485000Y-46814750D01*
X197485000Y-45465500D01*
X197739000Y-45465500D01*
X197739000Y-46814750D01*
X197897750Y-46973500D01*
X198538310Y-46973500D01*
X198771699Y-46876827D01*
X198897750Y-46750775D01*
X198992301Y-46845327D01*
X199225690Y-46942000D01*
X199866250Y-46942000D01*
X200025000Y-46783250D01*
X200025000Y-45434000D01*
X200279000Y-45434000D01*
X200279000Y-46783250D01*
X200437750Y-46942000D01*
X201078310Y-46942000D01*
X201311699Y-46845327D01*
X201422000Y-46735025D01*
X201532301Y-46845327D01*
X201765690Y-46942000D01*
X202406250Y-46942000D01*
X202565000Y-46783250D01*
X202565000Y-45434000D01*
X202819000Y-45434000D01*
X202819000Y-46783250D01*
X202977750Y-46942000D01*
X203618310Y-46942000D01*
X203851699Y-46845327D01*
X204030327Y-46666698D01*
X204127000Y-46433309D01*
X204127000Y-45592750D01*
X203968250Y-45434000D01*
X202819000Y-45434000D01*
X202565000Y-45434000D01*
X200279000Y-45434000D01*
X200025000Y-45434000D01*
X198875750Y-45434000D01*
X198844250Y-45465500D01*
X197739000Y-45465500D01*
X197485000Y-45465500D01*
X196335750Y-45465500D01*
X196177000Y-45624250D01*
X193552114Y-45624250D01*
X193743895Y-45544812D01*
X193860304Y-45262909D01*
X192782500Y-44185105D01*
X191704696Y-45262909D01*
X191272499Y-45262909D01*
X191272499Y-44978999D01*
X191525091Y-45083304D01*
X192602895Y-44005500D01*
X192962105Y-44005500D01*
X194039909Y-45083304D01*
X194321812Y-44966895D01*
X194572549Y-44304644D01*
X194569704Y-44212191D01*
X196177000Y-44212191D01*
X196177000Y-45052750D01*
X196335750Y-45211500D01*
X197485000Y-45211500D01*
X197485000Y-43862250D01*
X197739000Y-43862250D01*
X197739000Y-45211500D01*
X198888250Y-45211500D01*
X198919750Y-45180000D01*
X200025000Y-45180000D01*
X200025000Y-43830750D01*
X200279000Y-43830750D01*
X200279000Y-45180000D01*
X202565000Y-45180000D01*
X202565000Y-43830750D01*
X202819000Y-43830750D01*
X202819000Y-45180000D01*
X203968250Y-45180000D01*
X204127000Y-45021250D01*
X204127000Y-44921904D01*
X204290190Y-44989500D01*
X204755750Y-44989500D01*
X204914500Y-44830750D01*
X204914500Y-43731500D01*
X205168500Y-43731500D01*
X205168500Y-44830750D01*
X205327250Y-44989500D01*
X205792810Y-44989500D01*
X206026199Y-44892827D01*
X206121000Y-44798025D01*
X206215801Y-44892827D01*
X206449190Y-44989500D01*
X206914750Y-44989500D01*
X207073500Y-44830750D01*
X207073500Y-43731500D01*
X207327500Y-43731500D01*
X207327500Y-44830750D01*
X207486250Y-44989500D01*
X207951810Y-44989500D01*
X208185199Y-44892827D01*
X208363827Y-44714198D01*
X208460500Y-44480809D01*
X208460500Y-43890250D01*
X208301750Y-43731500D01*
X207327500Y-43731500D01*
X207073500Y-43731500D01*
X205168500Y-43731500D01*
X204914500Y-43731500D01*
X203940250Y-43731500D01*
X203877388Y-43794362D01*
X203851699Y-43768673D01*
X203618310Y-43672000D01*
X202977750Y-43672000D01*
X202819000Y-43830750D01*
X202565000Y-43830750D01*
X202406250Y-43672000D01*
X201765690Y-43672000D01*
X201532301Y-43768673D01*
X201422000Y-43878975D01*
X201311699Y-43768673D01*
X201078310Y-43672000D01*
X200437750Y-43672000D01*
X200279000Y-43830750D01*
X200025000Y-43830750D01*
X199866250Y-43672000D01*
X199225690Y-43672000D01*
X198992301Y-43768673D01*
X198866250Y-43894725D01*
X198771699Y-43800173D01*
X198538310Y-43703500D01*
X197897750Y-43703500D01*
X197739000Y-43862250D01*
X197485000Y-43862250D01*
X197326250Y-43703500D01*
X196685690Y-43703500D01*
X196452301Y-43800173D01*
X196273673Y-43978802D01*
X196177000Y-44212191D01*
X194569704Y-44212191D01*
X194550767Y-43596851D01*
X194321812Y-43044105D01*
X194039909Y-42927696D01*
X192962105Y-44005500D01*
X192602895Y-44005500D01*
X192588753Y-43991358D01*
X192768358Y-43811753D01*
X192782500Y-43825895D01*
X193860304Y-42748091D01*
X193746914Y-42473500D01*
X196191413Y-42473500D01*
X196213843Y-42586265D01*
X196354191Y-42796309D01*
X196564235Y-42936657D01*
X196812000Y-42985940D01*
X198412000Y-42985940D01*
X198659765Y-42936657D01*
X198869809Y-42796309D01*
X198892524Y-42762314D01*
X198894191Y-42764809D01*
X199104235Y-42905157D01*
X199352000Y-42954440D01*
X200952000Y-42954440D01*
X201199765Y-42905157D01*
X201409809Y-42764809D01*
X201422000Y-42746564D01*
X201434191Y-42764809D01*
X201644235Y-42905157D01*
X201892000Y-42954440D01*
X203492000Y-42954440D01*
X203739765Y-42905157D01*
X203781500Y-42877270D01*
X203781500Y-43318750D01*
X203940250Y-43477500D01*
X204914500Y-43477500D01*
X204914500Y-43457500D01*
X205168500Y-43457500D01*
X205168500Y-43477500D01*
X207073500Y-43477500D01*
X207073500Y-43457500D01*
X207327500Y-43457500D01*
X207327500Y-43477500D01*
X208301750Y-43477500D01*
X208460500Y-43318750D01*
X208460500Y-42728191D01*
X208363827Y-42494802D01*
X208222180Y-42353154D01*
X208283309Y-42312309D01*
X208423657Y-42102265D01*
X208472940Y-41854500D01*
X208472940Y-41312192D01*
X209295632Y-40489500D01*
X209463078Y-40489500D01*
X209495691Y-40538309D01*
X209495691Y-40538309D01*
G37*
X209495691Y-40538309D02*
X209705735Y-40678657D01*
X209953500Y-40727940D01*
X211053500Y-40727940D01*
X211301265Y-40678657D01*
X211503500Y-40543527D01*
X211705735Y-40678657D01*
X211953500Y-40727940D01*
X213053500Y-40727940D01*
X213301265Y-40678657D01*
X213503500Y-40543527D01*
X213705735Y-40678657D01*
X213953500Y-40727940D01*
X215053500Y-40727940D01*
X215301265Y-40678657D01*
X215503500Y-40543527D01*
X215618500Y-40620368D01*
X215618500Y-41464725D01*
X209113236Y-47969988D01*
X205345786Y-47969988D01*
X205345781Y-47969987D01*
X205063297Y-48026178D01*
X205007106Y-48037355D01*
X204719991Y-48229198D01*
X204719989Y-48229201D01*
X201875710Y-51073479D01*
X201683867Y-51360594D01*
X201683867Y-51360595D01*
X201616499Y-51699269D01*
X201616500Y-51699274D01*
X201616500Y-56910421D01*
X197722435Y-60804485D01*
X197494421Y-60804286D01*
X197040343Y-60991908D01*
X196692629Y-61339015D01*
X196504215Y-61792766D01*
X196503786Y-62284079D01*
X196691408Y-62738157D01*
X197038515Y-63085871D01*
X197492266Y-63274285D01*
X197983579Y-63274714D01*
X198437657Y-63087092D01*
X198785371Y-62739985D01*
X198973785Y-62286234D01*
X198973986Y-62056094D01*
X202743000Y-58287079D01*
X202743000Y-60387913D01*
X202630235Y-60410343D01*
X202420191Y-60550691D01*
X202279843Y-60760735D01*
X202230560Y-61008500D01*
X202230560Y-61704361D01*
X197875210Y-66059710D01*
X197683367Y-66346825D01*
X197673174Y-66398066D01*
X197615999Y-66685500D01*
X197616000Y-66685505D01*
X197616000Y-69532495D01*
X197615999Y-69532500D01*
X197616000Y-69532505D01*
X197616000Y-70687060D01*
X197001000Y-70687060D01*
X196753235Y-70736343D01*
X196543191Y-70876691D01*
X196402843Y-71086735D01*
X196353560Y-71334500D01*
X196353560Y-74199501D01*
X195438633Y-74199501D01*
X195245953Y-74006821D01*
X195555628Y-73261041D01*
X195556370Y-72411685D01*
X195524961Y-72335671D01*
X195938066Y-71922566D01*
X196028648Y-71787000D01*
X196184103Y-71554346D01*
X196270500Y-71120000D01*
X196270500Y-54348000D01*
X197331723Y-54348000D01*
X197447191Y-54520809D01*
X197657235Y-54661157D01*
X197905000Y-54710440D01*
X199605000Y-54710440D01*
X199852765Y-54661157D01*
X200062809Y-54520809D01*
X200203157Y-54310765D01*
X200252440Y-54063000D01*
X200252440Y-52363000D01*
X200203157Y-52115235D01*
X200062809Y-51905191D01*
X199852765Y-51764843D01*
X199749292Y-51744261D01*
X200026645Y-51439924D01*
X200196476Y-51029890D01*
X200075155Y-50800000D01*
X198882000Y-50800000D01*
X198882000Y-50820000D01*
X198628000Y-50820000D01*
X198628000Y-50800000D01*
X197434845Y-50800000D01*
X197313524Y-51029890D01*
X197483355Y-51439924D01*
X197760708Y-51744261D01*
X197657235Y-51764843D01*
X197447191Y-51905191D01*
X197331723Y-52078000D01*
X194860132Y-52078000D01*
X194562348Y-51780216D01*
X194562808Y-51252990D01*
X194292390Y-50598528D01*
X194010464Y-50316110D01*
X197313524Y-50316110D01*
X197434845Y-50546000D01*
X198628000Y-50546000D01*
X198628000Y-49352181D01*
X198882000Y-49352181D01*
X198882000Y-50546000D01*
X200075155Y-50546000D01*
X200196476Y-50316110D01*
X200026645Y-49906076D01*
X199636358Y-49477817D01*
X199111892Y-49231514D01*
X198882000Y-49352181D01*
X198628000Y-49352181D01*
X198398108Y-49231514D01*
X197873642Y-49477817D01*
X197483355Y-49906076D01*
X197313524Y-50316110D01*
X194010464Y-50316110D01*
X193792105Y-50097370D01*
X193138117Y-49825810D01*
X192607479Y-49825347D01*
X191272499Y-48490367D01*
X191272499Y-45262909D01*
X191704696Y-45262909D01*
X191821105Y-45544812D01*
X192483356Y-45795549D01*
X193191149Y-45773767D01*
X193552114Y-45624250D01*
X196177000Y-45624250D01*
X196177000Y-46464809D01*
X196273673Y-46698198D01*
X196452301Y-46876827D01*
X196685690Y-46973500D01*
X197326250Y-46973500D01*
X197485000Y-46814750D01*
X197485000Y-45465500D01*
X197739000Y-45465500D01*
X197739000Y-46814750D01*
X197897750Y-46973500D01*
X198538310Y-46973500D01*
X198771699Y-46876827D01*
X198897750Y-46750775D01*
X198992301Y-46845327D01*
X199225690Y-46942000D01*
X199866250Y-46942000D01*
X200025000Y-46783250D01*
X200025000Y-45434000D01*
X200279000Y-45434000D01*
X200279000Y-46783250D01*
X200437750Y-46942000D01*
X201078310Y-46942000D01*
X201311699Y-46845327D01*
X201422000Y-46735025D01*
X201532301Y-46845327D01*
X201765690Y-46942000D01*
X202406250Y-46942000D01*
X202565000Y-46783250D01*
X202565000Y-45434000D01*
X202819000Y-45434000D01*
X202819000Y-46783250D01*
X202977750Y-46942000D01*
X203618310Y-46942000D01*
X203851699Y-46845327D01*
X204030327Y-46666698D01*
X204127000Y-46433309D01*
X204127000Y-45592750D01*
X203968250Y-45434000D01*
X202819000Y-45434000D01*
X202565000Y-45434000D01*
X200279000Y-45434000D01*
X200025000Y-45434000D01*
X198875750Y-45434000D01*
X198844250Y-45465500D01*
X197739000Y-45465500D01*
X197485000Y-45465500D01*
X196335750Y-45465500D01*
X196177000Y-45624250D01*
X193552114Y-45624250D01*
X193743895Y-45544812D01*
X193860304Y-45262909D01*
X192782500Y-44185105D01*
X191704696Y-45262909D01*
X191272499Y-45262909D01*
X191272499Y-44978999D01*
X191525091Y-45083304D01*
X192602895Y-44005500D01*
X192962105Y-44005500D01*
X194039909Y-45083304D01*
X194321812Y-44966895D01*
X194572549Y-44304644D01*
X194569704Y-44212191D01*
X196177000Y-44212191D01*
X196177000Y-45052750D01*
X196335750Y-45211500D01*
X197485000Y-45211500D01*
X197485000Y-43862250D01*
X197739000Y-43862250D01*
X197739000Y-45211500D01*
X198888250Y-45211500D01*
X198919750Y-45180000D01*
X200025000Y-45180000D01*
X200025000Y-43830750D01*
X200279000Y-43830750D01*
X200279000Y-45180000D01*
X202565000Y-45180000D01*
X202565000Y-43830750D01*
X202819000Y-43830750D01*
X202819000Y-45180000D01*
X203968250Y-45180000D01*
X204127000Y-45021250D01*
X204127000Y-44921904D01*
X204290190Y-44989500D01*
X204755750Y-44989500D01*
X204914500Y-44830750D01*
X204914500Y-43731500D01*
X205168500Y-43731500D01*
X205168500Y-44830750D01*
X205327250Y-44989500D01*
X205792810Y-44989500D01*
X206026199Y-44892827D01*
X206121000Y-44798025D01*
X206215801Y-44892827D01*
X206449190Y-44989500D01*
X206914750Y-44989500D01*
X207073500Y-44830750D01*
X207073500Y-43731500D01*
X207327500Y-43731500D01*
X207327500Y-44830750D01*
X207486250Y-44989500D01*
X207951810Y-44989500D01*
X208185199Y-44892827D01*
X208363827Y-44714198D01*
X208460500Y-44480809D01*
X208460500Y-43890250D01*
X208301750Y-43731500D01*
X207327500Y-43731500D01*
X207073500Y-43731500D01*
X205168500Y-43731500D01*
X204914500Y-43731500D01*
X203940250Y-43731500D01*
X203877388Y-43794362D01*
X203851699Y-43768673D01*
X203618310Y-43672000D01*
X202977750Y-43672000D01*
X202819000Y-43830750D01*
X202565000Y-43830750D01*
X202406250Y-43672000D01*
X201765690Y-43672000D01*
X201532301Y-43768673D01*
X201422000Y-43878975D01*
X201311699Y-43768673D01*
X201078310Y-43672000D01*
X200437750Y-43672000D01*
X200279000Y-43830750D01*
X200025000Y-43830750D01*
X199866250Y-43672000D01*
X199225690Y-43672000D01*
X198992301Y-43768673D01*
X198866250Y-43894725D01*
X198771699Y-43800173D01*
X198538310Y-43703500D01*
X197897750Y-43703500D01*
X197739000Y-43862250D01*
X197485000Y-43862250D01*
X197326250Y-43703500D01*
X196685690Y-43703500D01*
X196452301Y-43800173D01*
X196273673Y-43978802D01*
X196177000Y-44212191D01*
X194569704Y-44212191D01*
X194550767Y-43596851D01*
X194321812Y-43044105D01*
X194039909Y-42927696D01*
X192962105Y-44005500D01*
X192602895Y-44005500D01*
X192588753Y-43991358D01*
X192768358Y-43811753D01*
X192782500Y-43825895D01*
X193860304Y-42748091D01*
X193746914Y-42473500D01*
X196191413Y-42473500D01*
X196213843Y-42586265D01*
X196354191Y-42796309D01*
X196564235Y-42936657D01*
X196812000Y-42985940D01*
X198412000Y-42985940D01*
X198659765Y-42936657D01*
X198869809Y-42796309D01*
X198892524Y-42762314D01*
X198894191Y-42764809D01*
X199104235Y-42905157D01*
X199352000Y-42954440D01*
X200952000Y-42954440D01*
X201199765Y-42905157D01*
X201409809Y-42764809D01*
X201422000Y-42746564D01*
X201434191Y-42764809D01*
X201644235Y-42905157D01*
X201892000Y-42954440D01*
X203492000Y-42954440D01*
X203739765Y-42905157D01*
X203781500Y-42877270D01*
X203781500Y-43318750D01*
X203940250Y-43477500D01*
X204914500Y-43477500D01*
X204914500Y-43457500D01*
X205168500Y-43457500D01*
X205168500Y-43477500D01*
X207073500Y-43477500D01*
X207073500Y-43457500D01*
X207327500Y-43457500D01*
X207327500Y-43477500D01*
X208301750Y-43477500D01*
X208460500Y-43318750D01*
X208460500Y-42728191D01*
X208363827Y-42494802D01*
X208222180Y-42353154D01*
X208283309Y-42312309D01*
X208423657Y-42102265D01*
X208472940Y-41854500D01*
X208472940Y-41312192D01*
X209295632Y-40489500D01*
X209463078Y-40489500D01*
X209495691Y-40538309D01*
G36*
X219618500Y-56020368D02*
X219618500Y-62272923D01*
X216782090Y-65109332D01*
X216833486Y-64999892D01*
X216712819Y-64770000D01*
X215519000Y-64770000D01*
X215519000Y-65963155D01*
X215748890Y-66084476D01*
X215847994Y-66043429D01*
X215661423Y-66229999D01*
X211523001Y-66229999D01*
X211184326Y-66297366D01*
X210897211Y-66489209D01*
X210897209Y-66489212D01*
X210402940Y-66983481D01*
X210402940Y-65814500D01*
X210353657Y-65566735D01*
X210213309Y-65356691D01*
X210003265Y-65216343D01*
X209994000Y-65214500D01*
X210003265Y-65212657D01*
X210213309Y-65072309D01*
X210353657Y-64862265D01*
X210376087Y-64749500D01*
X211354560Y-64749500D01*
X211354560Y-65493000D01*
X211403843Y-65740765D01*
X211544191Y-65950809D01*
X211754235Y-66091157D01*
X212002000Y-66140440D01*
X213702000Y-66140440D01*
X213949765Y-66091157D01*
X214159809Y-65950809D01*
X214300157Y-65740765D01*
X214320739Y-65637292D01*
X214625076Y-65914645D01*
X215035110Y-66084476D01*
X215265000Y-65963155D01*
X215265000Y-64770000D01*
X215245000Y-64770000D01*
X215245000Y-64516000D01*
X215265000Y-64516000D01*
X215265000Y-63322845D01*
X215519000Y-63322845D01*
X215519000Y-64516000D01*
X216712819Y-64516000D01*
X216833486Y-64286108D01*
X216587183Y-63761642D01*
X216158924Y-63371355D01*
X215748890Y-63201524D01*
X215519000Y-63322845D01*
X215265000Y-63322845D01*
X215035110Y-63201524D01*
X214625076Y-63371355D01*
X214320739Y-63648708D01*
X214300157Y-63545235D01*
X214159809Y-63335191D01*
X213949765Y-63194843D01*
X213702000Y-63145560D01*
X212958500Y-63145560D01*
X212958500Y-62045580D01*
X213796829Y-61207250D01*
X215896000Y-61207250D01*
X215896000Y-61847810D01*
X215992673Y-62081199D01*
X216171302Y-62259827D01*
X216404691Y-62356500D01*
X217245250Y-62356500D01*
X217404000Y-62197750D01*
X217404000Y-61048500D01*
X217658000Y-61048500D01*
X217658000Y-62197750D01*
X217816750Y-62356500D01*
X218657309Y-62356500D01*
X218890698Y-62259827D01*
X219069327Y-62081199D01*
X219166000Y-61847810D01*
X219166000Y-61207250D01*
X219007250Y-61048500D01*
X217658000Y-61048500D01*
X217404000Y-61048500D01*
X216054750Y-61048500D01*
X215896000Y-61207250D01*
X213796829Y-61207250D01*
X215008889Y-59995190D01*
X215896000Y-59995190D01*
X215896000Y-60635750D01*
X216054750Y-60794500D01*
X217404000Y-60794500D01*
X217404000Y-59645250D01*
X217658000Y-59645250D01*
X217658000Y-60794500D01*
X219007250Y-60794500D01*
X219166000Y-60635750D01*
X219166000Y-59995190D01*
X219069327Y-59761801D01*
X218890698Y-59583173D01*
X218657309Y-59486500D01*
X217816750Y-59486500D01*
X217658000Y-59645250D01*
X217404000Y-59645250D01*
X217245250Y-59486500D01*
X216404691Y-59486500D01*
X216171302Y-59583173D01*
X215992673Y-59761801D01*
X215896000Y-59995190D01*
X215008889Y-59995190D01*
X216053796Y-58950283D01*
X216073191Y-58979309D01*
X216283235Y-59119657D01*
X216531000Y-59168940D01*
X218531000Y-59168940D01*
X218778765Y-59119657D01*
X218988809Y-58979309D01*
X219129157Y-58769265D01*
X219178440Y-58521500D01*
X219178440Y-56921500D01*
X219129157Y-56673735D01*
X218988809Y-56463691D01*
X218778765Y-56323343D01*
X218531000Y-56274060D01*
X217388500Y-56274060D01*
X217388500Y-56020368D01*
X217503500Y-55943527D01*
X217705735Y-56078657D01*
X217953500Y-56127940D01*
X219053500Y-56127940D01*
X219301265Y-56078657D01*
X219503500Y-55943527D01*
X219618500Y-56020368D01*
X219618500Y-56020368D01*
G37*
X219618500Y-56020368D02*
X219618500Y-62272923D01*
X216782090Y-65109332D01*
X216833486Y-64999892D01*
X216712819Y-64770000D01*
X215519000Y-64770000D01*
X215519000Y-65963155D01*
X215748890Y-66084476D01*
X215847994Y-66043429D01*
X215661423Y-66229999D01*
X211523001Y-66229999D01*
X211184326Y-66297366D01*
X210897211Y-66489209D01*
X210897209Y-66489212D01*
X210402940Y-66983481D01*
X210402940Y-65814500D01*
X210353657Y-65566735D01*
X210213309Y-65356691D01*
X210003265Y-65216343D01*
X209994000Y-65214500D01*
X210003265Y-65212657D01*
X210213309Y-65072309D01*
X210353657Y-64862265D01*
X210376087Y-64749500D01*
X211354560Y-64749500D01*
X211354560Y-65493000D01*
X211403843Y-65740765D01*
X211544191Y-65950809D01*
X211754235Y-66091157D01*
X212002000Y-66140440D01*
X213702000Y-66140440D01*
X213949765Y-66091157D01*
X214159809Y-65950809D01*
X214300157Y-65740765D01*
X214320739Y-65637292D01*
X214625076Y-65914645D01*
X215035110Y-66084476D01*
X215265000Y-65963155D01*
X215265000Y-64770000D01*
X215245000Y-64770000D01*
X215245000Y-64516000D01*
X215265000Y-64516000D01*
X215265000Y-63322845D01*
X215519000Y-63322845D01*
X215519000Y-64516000D01*
X216712819Y-64516000D01*
X216833486Y-64286108D01*
X216587183Y-63761642D01*
X216158924Y-63371355D01*
X215748890Y-63201524D01*
X215519000Y-63322845D01*
X215265000Y-63322845D01*
X215035110Y-63201524D01*
X214625076Y-63371355D01*
X214320739Y-63648708D01*
X214300157Y-63545235D01*
X214159809Y-63335191D01*
X213949765Y-63194843D01*
X213702000Y-63145560D01*
X212958500Y-63145560D01*
X212958500Y-62045580D01*
X213796829Y-61207250D01*
X215896000Y-61207250D01*
X215896000Y-61847810D01*
X215992673Y-62081199D01*
X216171302Y-62259827D01*
X216404691Y-62356500D01*
X217245250Y-62356500D01*
X217404000Y-62197750D01*
X217404000Y-61048500D01*
X217658000Y-61048500D01*
X217658000Y-62197750D01*
X217816750Y-62356500D01*
X218657309Y-62356500D01*
X218890698Y-62259827D01*
X219069327Y-62081199D01*
X219166000Y-61847810D01*
X219166000Y-61207250D01*
X219007250Y-61048500D01*
X217658000Y-61048500D01*
X217404000Y-61048500D01*
X216054750Y-61048500D01*
X215896000Y-61207250D01*
X213796829Y-61207250D01*
X215008889Y-59995190D01*
X215896000Y-59995190D01*
X215896000Y-60635750D01*
X216054750Y-60794500D01*
X217404000Y-60794500D01*
X217404000Y-59645250D01*
X217658000Y-59645250D01*
X217658000Y-60794500D01*
X219007250Y-60794500D01*
X219166000Y-60635750D01*
X219166000Y-59995190D01*
X219069327Y-59761801D01*
X218890698Y-59583173D01*
X218657309Y-59486500D01*
X217816750Y-59486500D01*
X217658000Y-59645250D01*
X217404000Y-59645250D01*
X217245250Y-59486500D01*
X216404691Y-59486500D01*
X216171302Y-59583173D01*
X215992673Y-59761801D01*
X215896000Y-59995190D01*
X215008889Y-59995190D01*
X216053796Y-58950283D01*
X216073191Y-58979309D01*
X216283235Y-59119657D01*
X216531000Y-59168940D01*
X218531000Y-59168940D01*
X218778765Y-59119657D01*
X218988809Y-58979309D01*
X219129157Y-58769265D01*
X219178440Y-58521500D01*
X219178440Y-56921500D01*
X219129157Y-56673735D01*
X218988809Y-56463691D01*
X218778765Y-56323343D01*
X218531000Y-56274060D01*
X217388500Y-56274060D01*
X217388500Y-56020368D01*
X217503500Y-55943527D01*
X217705735Y-56078657D01*
X217953500Y-56127940D01*
X219053500Y-56127940D01*
X219301265Y-56078657D01*
X219503500Y-55943527D01*
X219618500Y-56020368D01*
G36*
X222631000Y-61404500D02*
X222651000Y-61404500D01*
X222651000Y-61658500D01*
X222631000Y-61658500D01*
X222631000Y-61678500D01*
X222377000Y-61678500D01*
X222377000Y-61658500D01*
X222357000Y-61658500D01*
X222357000Y-61404500D01*
X222377000Y-61404500D01*
X222377000Y-61384500D01*
X222631000Y-61384500D01*
X222631000Y-61404500D01*
X222631000Y-61404500D01*
G37*
X222631000Y-61404500D02*
X222651000Y-61404500D01*
X222651000Y-61658500D01*
X222631000Y-61658500D01*
X222631000Y-61678500D01*
X222377000Y-61678500D01*
X222377000Y-61658500D01*
X222357000Y-61658500D01*
X222357000Y-61404500D01*
X222377000Y-61404500D01*
X222377000Y-61384500D01*
X222631000Y-61384500D01*
X222631000Y-61404500D01*
G36*
X205043343Y-34235265D02*
X205183691Y-34445309D01*
X205393735Y-34585657D01*
X205531474Y-34613055D01*
X205546022Y-34686191D01*
X205573867Y-34826175D01*
X205696026Y-35009000D01*
X205765710Y-35113290D01*
X207816921Y-37164500D01*
X207648917Y-37332504D01*
X207499765Y-37232843D01*
X207252000Y-37183560D01*
X205752000Y-37183560D01*
X205504235Y-37232843D01*
X205294191Y-37373191D01*
X205153843Y-37583235D01*
X205148279Y-37611209D01*
X205090327Y-37471301D01*
X204911698Y-37292673D01*
X204678309Y-37196000D01*
X204087750Y-37196000D01*
X203929000Y-37354750D01*
X203929000Y-38354000D01*
X203949000Y-38354000D01*
X203949000Y-38608000D01*
X203929000Y-38608000D01*
X203929000Y-38628000D01*
X203675000Y-38628000D01*
X203675000Y-38608000D01*
X202575750Y-38608000D01*
X202417000Y-38766750D01*
X202417000Y-39257310D01*
X202513673Y-39490699D01*
X202682535Y-39659560D01*
X201892000Y-39659560D01*
X201644235Y-39708843D01*
X201434191Y-39849191D01*
X201422000Y-39867436D01*
X201409809Y-39849191D01*
X201199765Y-39708843D01*
X200952000Y-39659560D01*
X199352000Y-39659560D01*
X199104235Y-39708843D01*
X198894191Y-39849191D01*
X198871476Y-39883186D01*
X198869809Y-39880691D01*
X198659765Y-39740343D01*
X198412000Y-39691060D01*
X196812000Y-39691060D01*
X196564235Y-39740343D01*
X196354191Y-39880691D01*
X196213843Y-40090735D01*
X196191413Y-40203500D01*
X192419898Y-40203500D01*
X192419898Y-37494231D01*
X192419899Y-37494226D01*
X192355241Y-37169174D01*
X192352531Y-37155551D01*
X192160688Y-36868436D01*
X192160685Y-36868434D01*
X190699544Y-35407292D01*
X190863166Y-35013245D01*
X193305708Y-37455787D01*
X193305710Y-37455790D01*
X193492353Y-37580500D01*
X193592826Y-37647634D01*
X193931500Y-37715001D01*
X193931505Y-37715000D01*
X197887885Y-37715000D01*
X198057235Y-37828157D01*
X198305000Y-37877440D01*
X199205000Y-37877440D01*
X199452765Y-37828157D01*
X199657560Y-37691316D01*
X199657560Y-38180000D01*
X199706843Y-38427765D01*
X199847191Y-38637809D01*
X200057235Y-38778157D01*
X200305000Y-38827440D01*
X201205000Y-38827440D01*
X201452765Y-38778157D01*
X201662809Y-38637809D01*
X201803157Y-38427765D01*
X201852440Y-38180000D01*
X201852440Y-37984140D01*
X202131889Y-37704690D01*
X202417000Y-37704690D01*
X202417000Y-38195250D01*
X202575750Y-38354000D01*
X203675000Y-38354000D01*
X203675000Y-37354750D01*
X203516250Y-37196000D01*
X202925691Y-37196000D01*
X202692302Y-37292673D01*
X202513673Y-37471301D01*
X202417000Y-37704690D01*
X202131889Y-37704690D01*
X203085385Y-36751194D01*
X203085388Y-36751192D01*
X203277231Y-36464077D01*
X203299923Y-36349998D01*
X203344599Y-36125402D01*
X203344598Y-36125397D01*
X203344598Y-35430978D01*
X204140635Y-34634940D01*
X204441500Y-34634940D01*
X204689265Y-34585657D01*
X204899309Y-34445309D01*
X205039657Y-34235265D01*
X205041500Y-34226000D01*
X205043343Y-34235265D01*
X205043343Y-34235265D01*
G37*
X205043343Y-34235265D02*
X205183691Y-34445309D01*
X205393735Y-34585657D01*
X205531474Y-34613055D01*
X205546022Y-34686191D01*
X205573867Y-34826175D01*
X205696026Y-35009000D01*
X205765710Y-35113290D01*
X207816921Y-37164500D01*
X207648917Y-37332504D01*
X207499765Y-37232843D01*
X207252000Y-37183560D01*
X205752000Y-37183560D01*
X205504235Y-37232843D01*
X205294191Y-37373191D01*
X205153843Y-37583235D01*
X205148279Y-37611209D01*
X205090327Y-37471301D01*
X204911698Y-37292673D01*
X204678309Y-37196000D01*
X204087750Y-37196000D01*
X203929000Y-37354750D01*
X203929000Y-38354000D01*
X203949000Y-38354000D01*
X203949000Y-38608000D01*
X203929000Y-38608000D01*
X203929000Y-38628000D01*
X203675000Y-38628000D01*
X203675000Y-38608000D01*
X202575750Y-38608000D01*
X202417000Y-38766750D01*
X202417000Y-39257310D01*
X202513673Y-39490699D01*
X202682535Y-39659560D01*
X201892000Y-39659560D01*
X201644235Y-39708843D01*
X201434191Y-39849191D01*
X201422000Y-39867436D01*
X201409809Y-39849191D01*
X201199765Y-39708843D01*
X200952000Y-39659560D01*
X199352000Y-39659560D01*
X199104235Y-39708843D01*
X198894191Y-39849191D01*
X198871476Y-39883186D01*
X198869809Y-39880691D01*
X198659765Y-39740343D01*
X198412000Y-39691060D01*
X196812000Y-39691060D01*
X196564235Y-39740343D01*
X196354191Y-39880691D01*
X196213843Y-40090735D01*
X196191413Y-40203500D01*
X192419898Y-40203500D01*
X192419898Y-37494231D01*
X192419899Y-37494226D01*
X192355241Y-37169174D01*
X192352531Y-37155551D01*
X192160688Y-36868436D01*
X192160685Y-36868434D01*
X190699544Y-35407292D01*
X190863166Y-35013245D01*
X193305708Y-37455787D01*
X193305710Y-37455790D01*
X193492353Y-37580500D01*
X193592826Y-37647634D01*
X193931500Y-37715001D01*
X193931505Y-37715000D01*
X197887885Y-37715000D01*
X198057235Y-37828157D01*
X198305000Y-37877440D01*
X199205000Y-37877440D01*
X199452765Y-37828157D01*
X199657560Y-37691316D01*
X199657560Y-38180000D01*
X199706843Y-38427765D01*
X199847191Y-38637809D01*
X200057235Y-38778157D01*
X200305000Y-38827440D01*
X201205000Y-38827440D01*
X201452765Y-38778157D01*
X201662809Y-38637809D01*
X201803157Y-38427765D01*
X201852440Y-38180000D01*
X201852440Y-37984140D01*
X202131889Y-37704690D01*
X202417000Y-37704690D01*
X202417000Y-38195250D01*
X202575750Y-38354000D01*
X203675000Y-38354000D01*
X203675000Y-37354750D01*
X203516250Y-37196000D01*
X202925691Y-37196000D01*
X202692302Y-37292673D01*
X202513673Y-37471301D01*
X202417000Y-37704690D01*
X202131889Y-37704690D01*
X203085385Y-36751194D01*
X203085388Y-36751192D01*
X203277231Y-36464077D01*
X203299923Y-36349998D01*
X203344599Y-36125402D01*
X203344598Y-36125397D01*
X203344598Y-35430978D01*
X204140635Y-34634940D01*
X204441500Y-34634940D01*
X204689265Y-34585657D01*
X204899309Y-34445309D01*
X205039657Y-34235265D01*
X205041500Y-34226000D01*
X205043343Y-34235265D01*
G36*
X214688711Y-33913288D02*
X214688713Y-33913291D01*
X214975828Y-34105134D01*
X215032019Y-34116311D01*
X215314503Y-34172502D01*
X215314508Y-34172501D01*
X215906000Y-34172501D01*
X215906000Y-34651750D01*
X216064750Y-34810500D01*
X217414000Y-34810500D01*
X217414000Y-34790500D01*
X217668000Y-34790500D01*
X217668000Y-34810500D01*
X219017250Y-34810500D01*
X219176000Y-34651750D01*
X219176000Y-34172501D01*
X219347011Y-34172501D01*
X219350843Y-34191765D01*
X219491191Y-34401809D01*
X219701235Y-34542157D01*
X219710500Y-34544000D01*
X219701235Y-34545843D01*
X219491191Y-34686191D01*
X219350843Y-34896235D01*
X219301560Y-35144000D01*
X219301560Y-36644000D01*
X219350843Y-36891765D01*
X219491191Y-37101809D01*
X219509067Y-37113753D01*
X219503500Y-37117473D01*
X219301265Y-36982343D01*
X219053500Y-36933060D01*
X217953500Y-36933060D01*
X217705735Y-36982343D01*
X217503500Y-37117473D01*
X217301265Y-36982343D01*
X217053500Y-36933060D01*
X215953500Y-36933060D01*
X215705735Y-36982343D01*
X215503500Y-37117473D01*
X215388500Y-37040632D01*
X215388500Y-36350003D01*
X215388501Y-36349998D01*
X215321133Y-36011323D01*
X215277150Y-35945498D01*
X215129290Y-35724208D01*
X215129287Y-35724206D01*
X214628332Y-35223250D01*
X215906000Y-35223250D01*
X215906000Y-35863810D01*
X216002673Y-36097199D01*
X216181302Y-36275827D01*
X216414691Y-36372500D01*
X217255250Y-36372500D01*
X217414000Y-36213750D01*
X217414000Y-35064500D01*
X217668000Y-35064500D01*
X217668000Y-36213750D01*
X217826750Y-36372500D01*
X218667309Y-36372500D01*
X218900698Y-36275827D01*
X219079327Y-36097199D01*
X219176000Y-35863810D01*
X219176000Y-35223250D01*
X219017250Y-35064500D01*
X217668000Y-35064500D01*
X217414000Y-35064500D01*
X216064750Y-35064500D01*
X215906000Y-35223250D01*
X214628332Y-35223250D01*
X212166791Y-32761709D01*
X212150628Y-32750909D01*
X211879676Y-32569866D01*
X211805609Y-32555133D01*
X211588440Y-32511934D01*
X211588440Y-30937500D01*
X211557531Y-30782108D01*
X214688711Y-33913288D01*
X214688711Y-33913288D01*
G37*
X214688711Y-33913288D02*
X214688713Y-33913291D01*
X214975828Y-34105134D01*
X215032019Y-34116311D01*
X215314503Y-34172502D01*
X215314508Y-34172501D01*
X215906000Y-34172501D01*
X215906000Y-34651750D01*
X216064750Y-34810500D01*
X217414000Y-34810500D01*
X217414000Y-34790500D01*
X217668000Y-34790500D01*
X217668000Y-34810500D01*
X219017250Y-34810500D01*
X219176000Y-34651750D01*
X219176000Y-34172501D01*
X219347011Y-34172501D01*
X219350843Y-34191765D01*
X219491191Y-34401809D01*
X219701235Y-34542157D01*
X219710500Y-34544000D01*
X219701235Y-34545843D01*
X219491191Y-34686191D01*
X219350843Y-34896235D01*
X219301560Y-35144000D01*
X219301560Y-36644000D01*
X219350843Y-36891765D01*
X219491191Y-37101809D01*
X219509067Y-37113753D01*
X219503500Y-37117473D01*
X219301265Y-36982343D01*
X219053500Y-36933060D01*
X217953500Y-36933060D01*
X217705735Y-36982343D01*
X217503500Y-37117473D01*
X217301265Y-36982343D01*
X217053500Y-36933060D01*
X215953500Y-36933060D01*
X215705735Y-36982343D01*
X215503500Y-37117473D01*
X215388500Y-37040632D01*
X215388500Y-36350003D01*
X215388501Y-36349998D01*
X215321133Y-36011323D01*
X215277150Y-35945498D01*
X215129290Y-35724208D01*
X215129287Y-35724206D01*
X214628332Y-35223250D01*
X215906000Y-35223250D01*
X215906000Y-35863810D01*
X216002673Y-36097199D01*
X216181302Y-36275827D01*
X216414691Y-36372500D01*
X217255250Y-36372500D01*
X217414000Y-36213750D01*
X217414000Y-35064500D01*
X217668000Y-35064500D01*
X217668000Y-36213750D01*
X217826750Y-36372500D01*
X218667309Y-36372500D01*
X218900698Y-36275827D01*
X219079327Y-36097199D01*
X219176000Y-35863810D01*
X219176000Y-35223250D01*
X219017250Y-35064500D01*
X217668000Y-35064500D01*
X217414000Y-35064500D01*
X216064750Y-35064500D01*
X215906000Y-35223250D01*
X214628332Y-35223250D01*
X212166791Y-32761709D01*
X212150628Y-32750909D01*
X211879676Y-32569866D01*
X211805609Y-32555133D01*
X211588440Y-32511934D01*
X211588440Y-30937500D01*
X211557531Y-30782108D01*
X214688711Y-33913288D01*
G36*
X207815205Y-34013286D02*
X207815207Y-34013289D01*
X208102322Y-34205132D01*
X208158513Y-34216309D01*
X208306000Y-34245647D01*
X208306000Y-34651750D01*
X208464750Y-34810500D01*
X209814000Y-34810500D01*
X209814000Y-34790500D01*
X210068000Y-34790500D01*
X210068000Y-34810500D01*
X211417250Y-34810500D01*
X211564836Y-34662914D01*
X213618500Y-36716577D01*
X213618500Y-37040632D01*
X213503500Y-37117473D01*
X213301265Y-36982343D01*
X213053500Y-36933060D01*
X213007641Y-36933060D01*
X212279291Y-36204709D01*
X212160599Y-36125402D01*
X211992176Y-36012866D01*
X211935985Y-36001689D01*
X211653501Y-35945498D01*
X211653496Y-35945499D01*
X211542163Y-35945499D01*
X211576000Y-35863810D01*
X211576000Y-35223250D01*
X211417250Y-35064500D01*
X210068000Y-35064500D01*
X210068000Y-35084500D01*
X209814000Y-35084500D01*
X209814000Y-35064500D01*
X208464750Y-35064500D01*
X208342415Y-35186835D01*
X207599942Y-34444362D01*
X207739657Y-34235265D01*
X207788940Y-33987500D01*
X207788940Y-33987021D01*
X207815205Y-34013286D01*
X207815205Y-34013286D01*
G37*
X207815205Y-34013286D02*
X207815207Y-34013289D01*
X208102322Y-34205132D01*
X208158513Y-34216309D01*
X208306000Y-34245647D01*
X208306000Y-34651750D01*
X208464750Y-34810500D01*
X209814000Y-34810500D01*
X209814000Y-34790500D01*
X210068000Y-34790500D01*
X210068000Y-34810500D01*
X211417250Y-34810500D01*
X211564836Y-34662914D01*
X213618500Y-36716577D01*
X213618500Y-37040632D01*
X213503500Y-37117473D01*
X213301265Y-36982343D01*
X213053500Y-36933060D01*
X213007641Y-36933060D01*
X212279291Y-36204709D01*
X212160599Y-36125402D01*
X211992176Y-36012866D01*
X211935985Y-36001689D01*
X211653501Y-35945498D01*
X211653496Y-35945499D01*
X211542163Y-35945499D01*
X211576000Y-35863810D01*
X211576000Y-35223250D01*
X211417250Y-35064500D01*
X210068000Y-35064500D01*
X210068000Y-35084500D01*
X209814000Y-35084500D01*
X209814000Y-35064500D01*
X208464750Y-35064500D01*
X208342415Y-35186835D01*
X207599942Y-34444362D01*
X207739657Y-34235265D01*
X207788940Y-33987500D01*
X207788940Y-33987021D01*
X207815205Y-34013286D01*
G36*
X196844243Y-27974165D02*
X196984591Y-28184209D01*
X197194635Y-28324557D01*
X197442400Y-28373840D01*
X198243380Y-28373840D01*
X198129210Y-28488010D01*
X197937367Y-28775125D01*
X197937367Y-28775126D01*
X197869999Y-29113800D01*
X197870000Y-29113805D01*
X197870000Y-31006450D01*
X197847191Y-31021691D01*
X197706843Y-31231735D01*
X197678744Y-31373000D01*
X194438171Y-31373000D01*
X194107923Y-31042176D01*
X193580691Y-30823250D01*
X193009813Y-30822752D01*
X192482200Y-31040757D01*
X192078176Y-31444077D01*
X191859250Y-31971309D01*
X191858752Y-32542187D01*
X192076757Y-33069800D01*
X192480077Y-33473824D01*
X193007309Y-33692750D01*
X193578187Y-33693248D01*
X194105800Y-33475243D01*
X194438623Y-33143000D01*
X198376495Y-33143000D01*
X198376500Y-33143001D01*
X198658984Y-33086810D01*
X198715175Y-33075633D01*
X198937711Y-32926940D01*
X199205000Y-32926940D01*
X199452765Y-32877657D01*
X199657560Y-32740816D01*
X199657560Y-33229500D01*
X199706843Y-33477265D01*
X199847191Y-33687309D01*
X200057235Y-33827657D01*
X200305000Y-33876940D01*
X201205000Y-33876940D01*
X201452765Y-33827657D01*
X201622115Y-33714500D01*
X201704995Y-33714500D01*
X201705000Y-33714501D01*
X202000928Y-33655636D01*
X202043675Y-33647133D01*
X202294060Y-33479832D01*
X202294060Y-33978356D01*
X201833808Y-34438608D01*
X201641965Y-34725723D01*
X201641965Y-34725724D01*
X201593316Y-34970291D01*
X201564698Y-34941673D01*
X201331309Y-34845000D01*
X201040750Y-34845000D01*
X200882000Y-35003750D01*
X200882000Y-35753000D01*
X200902000Y-35753000D01*
X200902000Y-36007000D01*
X200882000Y-36007000D01*
X200882000Y-36027000D01*
X200628000Y-36027000D01*
X200628000Y-36007000D01*
X199828750Y-36007000D01*
X199743219Y-36092531D01*
X199662809Y-35972191D01*
X199452765Y-35831843D01*
X199205000Y-35782560D01*
X198305000Y-35782560D01*
X198057235Y-35831843D01*
X197887885Y-35945000D01*
X194298079Y-35945000D01*
X193706770Y-35353690D01*
X199670000Y-35353690D01*
X199670000Y-35594250D01*
X199828750Y-35753000D01*
X200628000Y-35753000D01*
X200628000Y-35003750D01*
X200469250Y-34845000D01*
X200178691Y-34845000D01*
X199945302Y-34941673D01*
X199766673Y-35120301D01*
X199670000Y-35353690D01*
X193706770Y-35353690D01*
X190372769Y-32019689D01*
X190744579Y-32020014D01*
X191198657Y-31832392D01*
X191546371Y-31485285D01*
X191734785Y-31031534D01*
X191734986Y-30801394D01*
X193056187Y-29480192D01*
X193056190Y-29480190D01*
X193248033Y-29193075D01*
X193263802Y-29113800D01*
X193315401Y-28854400D01*
X193315400Y-28854395D01*
X193315400Y-27961400D01*
X196841704Y-27961400D01*
X196844243Y-27974165D01*
X196844243Y-27974165D01*
G37*
X196844243Y-27974165D02*
X196984591Y-28184209D01*
X197194635Y-28324557D01*
X197442400Y-28373840D01*
X198243380Y-28373840D01*
X198129210Y-28488010D01*
X197937367Y-28775125D01*
X197937367Y-28775126D01*
X197869999Y-29113800D01*
X197870000Y-29113805D01*
X197870000Y-31006450D01*
X197847191Y-31021691D01*
X197706843Y-31231735D01*
X197678744Y-31373000D01*
X194438171Y-31373000D01*
X194107923Y-31042176D01*
X193580691Y-30823250D01*
X193009813Y-30822752D01*
X192482200Y-31040757D01*
X192078176Y-31444077D01*
X191859250Y-31971309D01*
X191858752Y-32542187D01*
X192076757Y-33069800D01*
X192480077Y-33473824D01*
X193007309Y-33692750D01*
X193578187Y-33693248D01*
X194105800Y-33475243D01*
X194438623Y-33143000D01*
X198376495Y-33143000D01*
X198376500Y-33143001D01*
X198658984Y-33086810D01*
X198715175Y-33075633D01*
X198937711Y-32926940D01*
X199205000Y-32926940D01*
X199452765Y-32877657D01*
X199657560Y-32740816D01*
X199657560Y-33229500D01*
X199706843Y-33477265D01*
X199847191Y-33687309D01*
X200057235Y-33827657D01*
X200305000Y-33876940D01*
X201205000Y-33876940D01*
X201452765Y-33827657D01*
X201622115Y-33714500D01*
X201704995Y-33714500D01*
X201705000Y-33714501D01*
X202000928Y-33655636D01*
X202043675Y-33647133D01*
X202294060Y-33479832D01*
X202294060Y-33978356D01*
X201833808Y-34438608D01*
X201641965Y-34725723D01*
X201641965Y-34725724D01*
X201593316Y-34970291D01*
X201564698Y-34941673D01*
X201331309Y-34845000D01*
X201040750Y-34845000D01*
X200882000Y-35003750D01*
X200882000Y-35753000D01*
X200902000Y-35753000D01*
X200902000Y-36007000D01*
X200882000Y-36007000D01*
X200882000Y-36027000D01*
X200628000Y-36027000D01*
X200628000Y-36007000D01*
X199828750Y-36007000D01*
X199743219Y-36092531D01*
X199662809Y-35972191D01*
X199452765Y-35831843D01*
X199205000Y-35782560D01*
X198305000Y-35782560D01*
X198057235Y-35831843D01*
X197887885Y-35945000D01*
X194298079Y-35945000D01*
X193706770Y-35353690D01*
X199670000Y-35353690D01*
X199670000Y-35594250D01*
X199828750Y-35753000D01*
X200628000Y-35753000D01*
X200628000Y-35003750D01*
X200469250Y-34845000D01*
X200178691Y-34845000D01*
X199945302Y-34941673D01*
X199766673Y-35120301D01*
X199670000Y-35353690D01*
X193706770Y-35353690D01*
X190372769Y-32019689D01*
X190744579Y-32020014D01*
X191198657Y-31832392D01*
X191546371Y-31485285D01*
X191734785Y-31031534D01*
X191734986Y-30801394D01*
X193056187Y-29480192D01*
X193056190Y-29480190D01*
X193248033Y-29193075D01*
X193263802Y-29113800D01*
X193315401Y-28854400D01*
X193315400Y-28854395D01*
X193315400Y-27961400D01*
X196841704Y-27961400D01*
X196844243Y-27974165D01*
G36*
X217853842Y-15756908D02*
X217328650Y-16387445D01*
X220827600Y-19886395D01*
X224326550Y-16387445D01*
X223801358Y-15756908D01*
X223660338Y-15696000D01*
X225223000Y-15696000D01*
X225223000Y-17221411D01*
X225136692Y-17092242D01*
X224506155Y-16567050D01*
X221007205Y-20066000D01*
X224506155Y-23564950D01*
X225136692Y-23039758D01*
X225223000Y-22839930D01*
X225223000Y-31530419D01*
X224760791Y-31068209D01*
X224719706Y-31040757D01*
X224473676Y-30876366D01*
X224417485Y-30865189D01*
X224135001Y-30808998D01*
X224134996Y-30808999D01*
X219162880Y-30808999D01*
X219139157Y-30689735D01*
X218998809Y-30479691D01*
X218788765Y-30339343D01*
X218541000Y-30290060D01*
X216541000Y-30290060D01*
X216293235Y-30339343D01*
X216083191Y-30479691D01*
X215942843Y-30689735D01*
X215893560Y-30937500D01*
X215893560Y-32402501D01*
X215681082Y-32402501D01*
X208329191Y-25050609D01*
X208091814Y-24892000D01*
X208042076Y-24858766D01*
X207985885Y-24847589D01*
X207703401Y-24791398D01*
X207703396Y-24791399D01*
X199692401Y-24791399D01*
X199353726Y-24858766D01*
X199066611Y-25050609D01*
X199066609Y-25050612D01*
X198338260Y-25778960D01*
X197442400Y-25778960D01*
X197194635Y-25828243D01*
X196984591Y-25968591D01*
X196844243Y-26178635D01*
X196841704Y-26191400D01*
X189274389Y-26191400D01*
X188377797Y-25294808D01*
X188167753Y-25154460D01*
X187919988Y-25105177D01*
X187672223Y-25154460D01*
X187462179Y-25294808D01*
X186330808Y-26426179D01*
X186190460Y-26636223D01*
X186141177Y-26883988D01*
X186190460Y-27131753D01*
X186330808Y-27341797D01*
X187462179Y-28473168D01*
X187672223Y-28613516D01*
X187919988Y-28662799D01*
X188167753Y-28613516D01*
X188377797Y-28473168D01*
X188889565Y-27961400D01*
X191545400Y-27961400D01*
X191545400Y-28487821D01*
X190483435Y-29549785D01*
X190255421Y-29549586D01*
X189801343Y-29737208D01*
X189453629Y-30084315D01*
X189265215Y-30538066D01*
X189264889Y-30911809D01*
X184914264Y-26561184D01*
X184045437Y-23744555D01*
X217328650Y-23744555D01*
X217853842Y-24375092D01*
X219729223Y-25185090D01*
X221771823Y-25215753D01*
X223670673Y-24462413D01*
X223801358Y-24375092D01*
X224326550Y-23744555D01*
X220827600Y-20245605D01*
X217328650Y-23744555D01*
X184045437Y-23744555D01*
X183959500Y-23465960D01*
X183959500Y-21010223D01*
X215677847Y-21010223D01*
X216431187Y-22909073D01*
X216518508Y-23039758D01*
X217149045Y-23564950D01*
X220647995Y-20066000D01*
X217149045Y-16567050D01*
X216518508Y-17092242D01*
X215708510Y-18967623D01*
X215677847Y-21010223D01*
X183959500Y-21010223D01*
X183959500Y-19710400D01*
X183949833Y-19661799D01*
X183922303Y-19620597D01*
X183881101Y-19593067D01*
X183832500Y-19583400D01*
X156476023Y-19583400D01*
X156482953Y-19121777D01*
X155729613Y-17222927D01*
X155642292Y-17092242D01*
X155011755Y-16567050D01*
X151995405Y-19583400D01*
X151636195Y-19583400D01*
X154832150Y-16387445D01*
X154306958Y-15756908D01*
X154165938Y-15696000D01*
X217944997Y-15696000D01*
X217853842Y-15756908D01*
X217853842Y-15756908D01*
G37*
X217853842Y-15756908D02*
X217328650Y-16387445D01*
X220827600Y-19886395D01*
X224326550Y-16387445D01*
X223801358Y-15756908D01*
X223660338Y-15696000D01*
X225223000Y-15696000D01*
X225223000Y-17221411D01*
X225136692Y-17092242D01*
X224506155Y-16567050D01*
X221007205Y-20066000D01*
X224506155Y-23564950D01*
X225136692Y-23039758D01*
X225223000Y-22839930D01*
X225223000Y-31530419D01*
X224760791Y-31068209D01*
X224719706Y-31040757D01*
X224473676Y-30876366D01*
X224417485Y-30865189D01*
X224135001Y-30808998D01*
X224134996Y-30808999D01*
X219162880Y-30808999D01*
X219139157Y-30689735D01*
X218998809Y-30479691D01*
X218788765Y-30339343D01*
X218541000Y-30290060D01*
X216541000Y-30290060D01*
X216293235Y-30339343D01*
X216083191Y-30479691D01*
X215942843Y-30689735D01*
X215893560Y-30937500D01*
X215893560Y-32402501D01*
X215681082Y-32402501D01*
X208329191Y-25050609D01*
X208091814Y-24892000D01*
X208042076Y-24858766D01*
X207985885Y-24847589D01*
X207703401Y-24791398D01*
X207703396Y-24791399D01*
X199692401Y-24791399D01*
X199353726Y-24858766D01*
X199066611Y-25050609D01*
X199066609Y-25050612D01*
X198338260Y-25778960D01*
X197442400Y-25778960D01*
X197194635Y-25828243D01*
X196984591Y-25968591D01*
X196844243Y-26178635D01*
X196841704Y-26191400D01*
X189274389Y-26191400D01*
X188377797Y-25294808D01*
X188167753Y-25154460D01*
X187919988Y-25105177D01*
X187672223Y-25154460D01*
X187462179Y-25294808D01*
X186330808Y-26426179D01*
X186190460Y-26636223D01*
X186141177Y-26883988D01*
X186190460Y-27131753D01*
X186330808Y-27341797D01*
X187462179Y-28473168D01*
X187672223Y-28613516D01*
X187919988Y-28662799D01*
X188167753Y-28613516D01*
X188377797Y-28473168D01*
X188889565Y-27961400D01*
X191545400Y-27961400D01*
X191545400Y-28487821D01*
X190483435Y-29549785D01*
X190255421Y-29549586D01*
X189801343Y-29737208D01*
X189453629Y-30084315D01*
X189265215Y-30538066D01*
X189264889Y-30911809D01*
X184914264Y-26561184D01*
X184045437Y-23744555D01*
X217328650Y-23744555D01*
X217853842Y-24375092D01*
X219729223Y-25185090D01*
X221771823Y-25215753D01*
X223670673Y-24462413D01*
X223801358Y-24375092D01*
X224326550Y-23744555D01*
X220827600Y-20245605D01*
X217328650Y-23744555D01*
X184045437Y-23744555D01*
X183959500Y-23465960D01*
X183959500Y-21010223D01*
X215677847Y-21010223D01*
X216431187Y-22909073D01*
X216518508Y-23039758D01*
X217149045Y-23564950D01*
X220647995Y-20066000D01*
X217149045Y-16567050D01*
X216518508Y-17092242D01*
X215708510Y-18967623D01*
X215677847Y-21010223D01*
X183959500Y-21010223D01*
X183959500Y-19710400D01*
X183949833Y-19661799D01*
X183922303Y-19620597D01*
X183881101Y-19593067D01*
X183832500Y-19583400D01*
X156476023Y-19583400D01*
X156482953Y-19121777D01*
X155729613Y-17222927D01*
X155642292Y-17092242D01*
X155011755Y-16567050D01*
X151995405Y-19583400D01*
X151636195Y-19583400D01*
X154832150Y-16387445D01*
X154306958Y-15756908D01*
X154165938Y-15696000D01*
X217944997Y-15696000D01*
X217853842Y-15756908D01*
G36*
X202306500Y-26828750D02*
X202465250Y-26987500D01*
X203564500Y-26987500D01*
X203564500Y-26967500D01*
X203818500Y-26967500D01*
X203818500Y-26987500D01*
X203838500Y-26987500D01*
X203838500Y-27241500D01*
X203818500Y-27241500D01*
X203818500Y-28240750D01*
X203977250Y-28399500D01*
X204567809Y-28399500D01*
X204801198Y-28302827D01*
X204979827Y-28124199D01*
X205037779Y-27984291D01*
X205043343Y-28012265D01*
X205183691Y-28222309D01*
X205393735Y-28362657D01*
X205506500Y-28385087D01*
X205506500Y-29844413D01*
X205393735Y-29866843D01*
X205183691Y-30007191D01*
X205043343Y-30217235D01*
X205041500Y-30226500D01*
X205039657Y-30217235D01*
X204899309Y-30007191D01*
X204689265Y-29866843D01*
X204441500Y-29817560D01*
X202941500Y-29817560D01*
X202693735Y-29866843D01*
X202483691Y-30007191D01*
X202343343Y-30217235D01*
X202294060Y-30465000D01*
X202294060Y-30988861D01*
X201840000Y-31442920D01*
X201840000Y-31215250D01*
X201681250Y-31056500D01*
X200882000Y-31056500D01*
X200882000Y-31076500D01*
X200628000Y-31076500D01*
X200628000Y-31056500D01*
X199828750Y-31056500D01*
X199743219Y-31142031D01*
X199662809Y-31021691D01*
X199640000Y-31006450D01*
X199640000Y-30403190D01*
X199670000Y-30403190D01*
X199670000Y-30643750D01*
X199828750Y-30802500D01*
X200628000Y-30802500D01*
X200628000Y-30053250D01*
X200882000Y-30053250D01*
X200882000Y-30802500D01*
X201681250Y-30802500D01*
X201840000Y-30643750D01*
X201840000Y-30403190D01*
X201743327Y-30169801D01*
X201564698Y-29991173D01*
X201331309Y-29894500D01*
X201040750Y-29894500D01*
X200882000Y-30053250D01*
X200628000Y-30053250D01*
X200469250Y-29894500D01*
X200178691Y-29894500D01*
X199945302Y-29991173D01*
X199766673Y-30169801D01*
X199670000Y-30403190D01*
X199640000Y-30403190D01*
X199640000Y-29480380D01*
X200746539Y-28373840D01*
X201642400Y-28373840D01*
X201890165Y-28324557D01*
X202100209Y-28184209D01*
X202240557Y-27974165D01*
X202289840Y-27726400D01*
X202289840Y-27400250D01*
X202306500Y-27400250D01*
X202306500Y-27890810D01*
X202403173Y-28124199D01*
X202581802Y-28302827D01*
X202815191Y-28399500D01*
X203405750Y-28399500D01*
X203564500Y-28240750D01*
X203564500Y-27241500D01*
X202465250Y-27241500D01*
X202306500Y-27400250D01*
X202289840Y-27400250D01*
X202289840Y-26561399D01*
X202306500Y-26561399D01*
X202306500Y-26828750D01*
X202306500Y-26828750D01*
G37*
X202306500Y-26828750D02*
X202465250Y-26987500D01*
X203564500Y-26987500D01*
X203564500Y-26967500D01*
X203818500Y-26967500D01*
X203818500Y-26987500D01*
X203838500Y-26987500D01*
X203838500Y-27241500D01*
X203818500Y-27241500D01*
X203818500Y-28240750D01*
X203977250Y-28399500D01*
X204567809Y-28399500D01*
X204801198Y-28302827D01*
X204979827Y-28124199D01*
X205037779Y-27984291D01*
X205043343Y-28012265D01*
X205183691Y-28222309D01*
X205393735Y-28362657D01*
X205506500Y-28385087D01*
X205506500Y-29844413D01*
X205393735Y-29866843D01*
X205183691Y-30007191D01*
X205043343Y-30217235D01*
X205041500Y-30226500D01*
X205039657Y-30217235D01*
X204899309Y-30007191D01*
X204689265Y-29866843D01*
X204441500Y-29817560D01*
X202941500Y-29817560D01*
X202693735Y-29866843D01*
X202483691Y-30007191D01*
X202343343Y-30217235D01*
X202294060Y-30465000D01*
X202294060Y-30988861D01*
X201840000Y-31442920D01*
X201840000Y-31215250D01*
X201681250Y-31056500D01*
X200882000Y-31056500D01*
X200882000Y-31076500D01*
X200628000Y-31076500D01*
X200628000Y-31056500D01*
X199828750Y-31056500D01*
X199743219Y-31142031D01*
X199662809Y-31021691D01*
X199640000Y-31006450D01*
X199640000Y-30403190D01*
X199670000Y-30403190D01*
X199670000Y-30643750D01*
X199828750Y-30802500D01*
X200628000Y-30802500D01*
X200628000Y-30053250D01*
X200882000Y-30053250D01*
X200882000Y-30802500D01*
X201681250Y-30802500D01*
X201840000Y-30643750D01*
X201840000Y-30403190D01*
X201743327Y-30169801D01*
X201564698Y-29991173D01*
X201331309Y-29894500D01*
X201040750Y-29894500D01*
X200882000Y-30053250D01*
X200628000Y-30053250D01*
X200469250Y-29894500D01*
X200178691Y-29894500D01*
X199945302Y-29991173D01*
X199766673Y-30169801D01*
X199670000Y-30403190D01*
X199640000Y-30403190D01*
X199640000Y-29480380D01*
X200746539Y-28373840D01*
X201642400Y-28373840D01*
X201890165Y-28324557D01*
X202100209Y-28184209D01*
X202240557Y-27974165D01*
X202289840Y-27726400D01*
X202289840Y-27400250D01*
X202306500Y-27400250D01*
X202306500Y-27890810D01*
X202403173Y-28124199D01*
X202581802Y-28302827D01*
X202815191Y-28399500D01*
X203405750Y-28399500D01*
X203564500Y-28240750D01*
X203564500Y-27241500D01*
X202465250Y-27241500D01*
X202306500Y-27400250D01*
X202289840Y-27400250D01*
X202289840Y-26561399D01*
X202306500Y-26561399D01*
X202306500Y-26828750D01*
M02*
