G04 #@! TF.GenerationSoftware,KiCad,Pcbnew,no-vcs-found-c78a2ba~59~ubuntu16.10.1*
G04 #@! TF.CreationDate,2017-11-10T05:59:47+01:00*
G04 #@! TF.ProjectId,open_reflow,6F70656E5F7265666C6F772E6B696361,rev?*
G04 #@! TF.SameCoordinates,Original
G04 #@! TF.FileFunction,Copper,L2,Bot,Signal*
G04 #@! TF.FilePolarity,Positive*
%FSLAX46Y46*%
G04 Gerber Fmt 4.6, Leading zero omitted, Abs format (unit mm)*
G04 Created by KiCad (PCBNEW no-vcs-found-c78a2ba~59~ubuntu16.10.1) date Fri Nov 10 05:59:47 2017*
%MOMM*%
%LPD*%
G01*
G04 APERTURE LIST*
%ADD10C,2.290000*%
%ADD11C,5.000000*%
%ADD12C,1.600000*%
%ADD13C,0.100000*%
%ADD14C,3.000000*%
%ADD15R,3.000000X3.000000*%
%ADD16R,1.700000X1.700000*%
%ADD17O,1.700000X1.700000*%
%ADD18R,1.350000X1.350000*%
%ADD19C,1.350000*%
%ADD20C,2.500000*%
%ADD21C,9.000000*%
%ADD22C,1.200000*%
%ADD23C,0.500000*%
%ADD24C,3.000000*%
%ADD25C,0.254000*%
G04 APERTURE END LIST*
D10*
X192782500Y-51605500D03*
X192782500Y-44005500D03*
X164782500Y-59205500D03*
X164782500Y-44005500D03*
D11*
X153098500Y-62855000D03*
X153098500Y-54605000D03*
X153098500Y-29855000D03*
X153098500Y-46355000D03*
X153098500Y-38105000D03*
D12*
X193294000Y-32258000D03*
X187919988Y-26883988D03*
D13*
G36*
X186788617Y-26883988D02*
X187919988Y-25752617D01*
X189051359Y-26883988D01*
X187919988Y-28015359D01*
X186788617Y-26883988D01*
X186788617Y-26883988D01*
G37*
D14*
X193421000Y-72834500D03*
D15*
X198501000Y-72834500D03*
D16*
X198755000Y-53213000D03*
D17*
X198755000Y-50673000D03*
D16*
X209867500Y-69215000D03*
D17*
X212407500Y-69215000D03*
X214947500Y-69215000D03*
X222504000Y-58991500D03*
X222504000Y-61531500D03*
D16*
X222504000Y-64071500D03*
D17*
X215392000Y-64643000D03*
D16*
X212852000Y-64643000D03*
D18*
X177673000Y-65532000D03*
D19*
X177673000Y-68072000D03*
X185293000Y-65532000D03*
X185293000Y-68072000D03*
D14*
X180012000Y-30942000D03*
D20*
X178062000Y-36892000D03*
D14*
X165812000Y-36942000D03*
X165862000Y-24892000D03*
D20*
X178062000Y-24892000D03*
D21*
X220827600Y-20066000D03*
X220827600Y-72491600D03*
X151333200Y-72491600D03*
X151333200Y-20066000D03*
D22*
X158851600Y-69748400D03*
X165049200Y-72999600D03*
X172719998Y-76555600D03*
X207264000Y-46990000D03*
X205079600Y-46888400D03*
X223164400Y-30073600D03*
X213512400Y-27228800D03*
X187350400Y-17170400D03*
X176530000Y-17170400D03*
X187502800Y-75844400D03*
X200710800Y-17170400D03*
X200964800Y-24028400D03*
X201777600Y-66446400D03*
X201207964Y-34507692D03*
X203809600Y-35661600D03*
X200836252Y-28941752D03*
X207264000Y-59436000D03*
X208724500Y-55626000D03*
X205232000Y-53975000D03*
X215201500Y-34671000D03*
X189636400Y-34747200D03*
X190500000Y-30784800D03*
X197739000Y-62039500D03*
D23*
X159451599Y-70348399D02*
X158851600Y-69748400D01*
X162102800Y-72999600D02*
X159451599Y-70348399D01*
X165049200Y-72999600D02*
X162102800Y-72999600D01*
X173568526Y-76555600D02*
X172719998Y-76555600D01*
X186791600Y-76555600D02*
X173568526Y-76555600D01*
X187502800Y-75844400D02*
X186791600Y-76555600D01*
X213512400Y-27228800D02*
X216357200Y-30073600D01*
X216357200Y-30073600D02*
X223164400Y-30073600D01*
X200710800Y-17170400D02*
X187350400Y-17170400D01*
X200836252Y-28941752D02*
X200836252Y-24156948D01*
X200836252Y-24156948D02*
X200964800Y-24028400D01*
X190500000Y-30784800D02*
X190500000Y-33883600D01*
X190500000Y-33883600D02*
X189636400Y-34747200D01*
D24*
X171640500Y-32702500D02*
X173401000Y-30942000D01*
X173401000Y-30942000D02*
X180012000Y-30942000D01*
X171640500Y-47053500D02*
X171640500Y-32702500D01*
X164089000Y-54605000D02*
X171640500Y-47053500D01*
X160182000Y-54605000D02*
X164089000Y-54605000D01*
X164782500Y-59205500D02*
X160182000Y-54605000D01*
X160182000Y-54605000D02*
X153098500Y-54605000D01*
X165812000Y-36942000D02*
X158725000Y-29855000D01*
X158725000Y-29855000D02*
X153098500Y-29855000D01*
X153098500Y-38105000D02*
X153098500Y-42100500D01*
X153098500Y-42100500D02*
X153098500Y-46355000D01*
X160972500Y-44005500D02*
X159067500Y-42100500D01*
X159067500Y-42100500D02*
X153098500Y-42100500D01*
X164782500Y-44005500D02*
X160972500Y-44005500D01*
D23*
X197739000Y-62039500D02*
X188785500Y-62039500D01*
X188785500Y-62039500D02*
X185293000Y-65532000D01*
D25*
G36*
X217853842Y-15756908D02*
X217328650Y-16387445D01*
X220827600Y-19886395D01*
X224326550Y-16387445D01*
X223801358Y-15756908D01*
X223660338Y-15696000D01*
X225223000Y-15696000D01*
X225223000Y-17221411D01*
X225136692Y-17092242D01*
X224506155Y-16567050D01*
X221007205Y-20066000D01*
X224506155Y-23564950D01*
X225136692Y-23039758D01*
X225223000Y-22839930D01*
X225223000Y-69647011D01*
X225136692Y-69517842D01*
X224506155Y-68992650D01*
X221007205Y-72491600D01*
X224506155Y-75990550D01*
X225136692Y-75465358D01*
X225223000Y-75265530D01*
X225223000Y-76887000D01*
X223672189Y-76887000D01*
X223801358Y-76800692D01*
X224326550Y-76170155D01*
X220827600Y-72671205D01*
X217328650Y-76170155D01*
X217853842Y-76800692D01*
X218053670Y-76887000D01*
X154177789Y-76887000D01*
X154306958Y-76800692D01*
X154832150Y-76170155D01*
X151333200Y-72671205D01*
X147834250Y-76170155D01*
X148359442Y-76800692D01*
X148559270Y-76887000D01*
X146950500Y-76887000D01*
X146950500Y-75355196D01*
X147024108Y-75465358D01*
X147654645Y-75990550D01*
X151153595Y-72491600D01*
X151512805Y-72491600D01*
X155011755Y-75990550D01*
X155642292Y-75465358D01*
X156452290Y-73589977D01*
X156482953Y-71547377D01*
X155729613Y-69648527D01*
X155642292Y-69517842D01*
X155011755Y-68992650D01*
X151512805Y-72491600D01*
X151153595Y-72491600D01*
X147654645Y-68992650D01*
X147024108Y-69517842D01*
X146950500Y-69688266D01*
X146950500Y-68813045D01*
X147834250Y-68813045D01*
X151333200Y-72311995D01*
X154832150Y-68813045D01*
X154306958Y-68182508D01*
X152431577Y-67372510D01*
X150388977Y-67341847D01*
X148490127Y-68095187D01*
X148359442Y-68182508D01*
X147834250Y-68813045D01*
X146950500Y-68813045D01*
X146950500Y-65090880D01*
X151042225Y-65090880D01*
X151323921Y-65513564D01*
X152476392Y-65990294D01*
X153723572Y-65989705D01*
X154873079Y-65513564D01*
X155154775Y-65090880D01*
X153098500Y-63034605D01*
X151042225Y-65090880D01*
X146950500Y-65090880D01*
X146950500Y-62232892D01*
X149963206Y-62232892D01*
X149963795Y-63480072D01*
X150439936Y-64629579D01*
X150862620Y-64911275D01*
X152918895Y-62855000D01*
X153278105Y-62855000D01*
X155334380Y-64911275D01*
X155757064Y-64629579D01*
X156233794Y-63477108D01*
X156233205Y-62229928D01*
X155757064Y-61080421D01*
X155334380Y-60798725D01*
X153278105Y-62855000D01*
X152918895Y-62855000D01*
X150862620Y-60798725D01*
X150439936Y-61080421D01*
X149963206Y-62232892D01*
X146950500Y-62232892D01*
X146950500Y-60388500D01*
X151195921Y-60388500D01*
X151042225Y-60619120D01*
X153098500Y-62675395D01*
X155154775Y-60619120D01*
X155001079Y-60388500D01*
X155649394Y-60388500D01*
X170026697Y-74765803D01*
X170067899Y-74793333D01*
X170116500Y-74803000D01*
X183832500Y-74803000D01*
X183881101Y-74793333D01*
X183922303Y-74765803D01*
X183949833Y-74724601D01*
X183959500Y-74676000D01*
X183959500Y-73257315D01*
X191285630Y-73257315D01*
X191609980Y-74042300D01*
X192210041Y-74643409D01*
X192994459Y-74969128D01*
X193843815Y-74969870D01*
X194628800Y-74645520D01*
X195229909Y-74045459D01*
X195555628Y-73261041D01*
X195556370Y-72411685D01*
X195232020Y-71626700D01*
X194940330Y-71334500D01*
X196353560Y-71334500D01*
X196353560Y-74334500D01*
X196402843Y-74582265D01*
X196543191Y-74792309D01*
X196753235Y-74932657D01*
X197001000Y-74981940D01*
X200001000Y-74981940D01*
X200248765Y-74932657D01*
X200458809Y-74792309D01*
X200599157Y-74582265D01*
X200648440Y-74334500D01*
X200648440Y-73435823D01*
X215677847Y-73435823D01*
X216431187Y-75334673D01*
X216518508Y-75465358D01*
X217149045Y-75990550D01*
X220647995Y-72491600D01*
X217149045Y-68992650D01*
X216518508Y-69517842D01*
X215708510Y-71393223D01*
X215677847Y-73435823D01*
X200648440Y-73435823D01*
X200648440Y-71334500D01*
X200599157Y-71086735D01*
X200458809Y-70876691D01*
X200248765Y-70736343D01*
X200001000Y-70687060D01*
X197001000Y-70687060D01*
X196753235Y-70736343D01*
X196543191Y-70876691D01*
X196402843Y-71086735D01*
X196353560Y-71334500D01*
X194940330Y-71334500D01*
X194631959Y-71025591D01*
X193847541Y-70699872D01*
X192998185Y-70699130D01*
X192213200Y-71023480D01*
X191612091Y-71623541D01*
X191286372Y-72407959D01*
X191285630Y-73257315D01*
X183959500Y-73257315D01*
X183959500Y-68989147D01*
X184555458Y-68989147D01*
X184614219Y-69222328D01*
X185106100Y-69394522D01*
X185626434Y-69365375D01*
X185971781Y-69222328D01*
X186030542Y-68989147D01*
X185293000Y-68251605D01*
X184555458Y-68989147D01*
X183959500Y-68989147D01*
X183959500Y-67885100D01*
X183970478Y-67885100D01*
X183999625Y-68405434D01*
X184142672Y-68750781D01*
X184375853Y-68809542D01*
X185113395Y-68072000D01*
X185472605Y-68072000D01*
X186210147Y-68809542D01*
X186443328Y-68750781D01*
X186578379Y-68365000D01*
X208370060Y-68365000D01*
X208370060Y-70065000D01*
X208419343Y-70312765D01*
X208559691Y-70522809D01*
X208769735Y-70663157D01*
X209017500Y-70712440D01*
X210717500Y-70712440D01*
X210965265Y-70663157D01*
X211175309Y-70522809D01*
X211315657Y-70312765D01*
X211328097Y-70250223D01*
X211357446Y-70294147D01*
X211839215Y-70616054D01*
X212407500Y-70729093D01*
X212975785Y-70616054D01*
X213457554Y-70294147D01*
X213685202Y-69953447D01*
X213752317Y-70096358D01*
X214180576Y-70486645D01*
X214590610Y-70656476D01*
X214820500Y-70535155D01*
X214820500Y-69342000D01*
X215074500Y-69342000D01*
X215074500Y-70535155D01*
X215304390Y-70656476D01*
X215714424Y-70486645D01*
X216142683Y-70096358D01*
X216388986Y-69571892D01*
X216268319Y-69342000D01*
X215074500Y-69342000D01*
X214820500Y-69342000D01*
X214800500Y-69342000D01*
X214800500Y-69088000D01*
X214820500Y-69088000D01*
X214820500Y-67894845D01*
X215074500Y-67894845D01*
X215074500Y-69088000D01*
X216268319Y-69088000D01*
X216388986Y-68858108D01*
X216367824Y-68813045D01*
X217328650Y-68813045D01*
X220827600Y-72311995D01*
X224326550Y-68813045D01*
X223801358Y-68182508D01*
X221925977Y-67372510D01*
X219883377Y-67341847D01*
X217984527Y-68095187D01*
X217853842Y-68182508D01*
X217328650Y-68813045D01*
X216367824Y-68813045D01*
X216142683Y-68333642D01*
X215714424Y-67943355D01*
X215304390Y-67773524D01*
X215074500Y-67894845D01*
X214820500Y-67894845D01*
X214590610Y-67773524D01*
X214180576Y-67943355D01*
X213752317Y-68333642D01*
X213685202Y-68476553D01*
X213457554Y-68135853D01*
X212975785Y-67813946D01*
X212407500Y-67700907D01*
X211839215Y-67813946D01*
X211357446Y-68135853D01*
X211328097Y-68179777D01*
X211315657Y-68117235D01*
X211175309Y-67907191D01*
X210965265Y-67766843D01*
X210717500Y-67717560D01*
X209017500Y-67717560D01*
X208769735Y-67766843D01*
X208559691Y-67907191D01*
X208419343Y-68117235D01*
X208370060Y-68365000D01*
X186578379Y-68365000D01*
X186615522Y-68258900D01*
X186586375Y-67738566D01*
X186443328Y-67393219D01*
X186210147Y-67334458D01*
X185472605Y-68072000D01*
X185113395Y-68072000D01*
X184375853Y-67334458D01*
X184142672Y-67393219D01*
X183970478Y-67885100D01*
X183959500Y-67885100D01*
X183959500Y-65791432D01*
X183982774Y-65791432D01*
X184181789Y-66273086D01*
X184549976Y-66641916D01*
X184919337Y-66795288D01*
X184614219Y-66921672D01*
X184555458Y-67154853D01*
X185293000Y-67892395D01*
X186030542Y-67154853D01*
X185971781Y-66921672D01*
X185640680Y-66805763D01*
X186034086Y-66643211D01*
X186402916Y-66275024D01*
X186602772Y-65793718D01*
X186603051Y-65473529D01*
X188283579Y-63793000D01*
X211354560Y-63793000D01*
X211354560Y-65493000D01*
X211403843Y-65740765D01*
X211544191Y-65950809D01*
X211754235Y-66091157D01*
X212002000Y-66140440D01*
X213702000Y-66140440D01*
X213949765Y-66091157D01*
X214159809Y-65950809D01*
X214300157Y-65740765D01*
X214320739Y-65637292D01*
X214625076Y-65914645D01*
X215035110Y-66084476D01*
X215265000Y-65963155D01*
X215265000Y-64770000D01*
X215519000Y-64770000D01*
X215519000Y-65963155D01*
X215748890Y-66084476D01*
X216158924Y-65914645D01*
X216587183Y-65524358D01*
X216833486Y-64999892D01*
X216712819Y-64770000D01*
X215519000Y-64770000D01*
X215265000Y-64770000D01*
X215245000Y-64770000D01*
X215245000Y-64516000D01*
X215265000Y-64516000D01*
X215265000Y-63322845D01*
X215519000Y-63322845D01*
X215519000Y-64516000D01*
X216712819Y-64516000D01*
X216833486Y-64286108D01*
X216587183Y-63761642D01*
X216158924Y-63371355D01*
X215797120Y-63221500D01*
X221006560Y-63221500D01*
X221006560Y-64921500D01*
X221055843Y-65169265D01*
X221196191Y-65379309D01*
X221406235Y-65519657D01*
X221654000Y-65568940D01*
X223354000Y-65568940D01*
X223601765Y-65519657D01*
X223811809Y-65379309D01*
X223952157Y-65169265D01*
X224001440Y-64921500D01*
X224001440Y-63221500D01*
X223952157Y-62973735D01*
X223811809Y-62763691D01*
X223601765Y-62623343D01*
X223498292Y-62602761D01*
X223775645Y-62298424D01*
X223945476Y-61888390D01*
X223824155Y-61658500D01*
X222631000Y-61658500D01*
X222631000Y-61678500D01*
X222377000Y-61678500D01*
X222377000Y-61658500D01*
X221183845Y-61658500D01*
X221062524Y-61888390D01*
X221232355Y-62298424D01*
X221509708Y-62602761D01*
X221406235Y-62623343D01*
X221196191Y-62763691D01*
X221055843Y-62973735D01*
X221006560Y-63221500D01*
X215797120Y-63221500D01*
X215748890Y-63201524D01*
X215519000Y-63322845D01*
X215265000Y-63322845D01*
X215035110Y-63201524D01*
X214625076Y-63371355D01*
X214320739Y-63648708D01*
X214300157Y-63545235D01*
X214159809Y-63335191D01*
X213949765Y-63194843D01*
X213702000Y-63145560D01*
X212002000Y-63145560D01*
X211754235Y-63194843D01*
X211544191Y-63335191D01*
X211403843Y-63545235D01*
X211354560Y-63793000D01*
X188283579Y-63793000D01*
X189152079Y-62924500D01*
X196877426Y-62924500D01*
X197038515Y-63085871D01*
X197492266Y-63274285D01*
X197983579Y-63274714D01*
X198437657Y-63087092D01*
X198785371Y-62739985D01*
X198973785Y-62286234D01*
X198974214Y-61794921D01*
X198786592Y-61340843D01*
X198439485Y-60993129D01*
X197985734Y-60804715D01*
X197494421Y-60804286D01*
X197040343Y-60991908D01*
X196877467Y-61154500D01*
X188785505Y-61154500D01*
X188785500Y-61154499D01*
X188503016Y-61210690D01*
X188446825Y-61221867D01*
X188159710Y-61413710D01*
X188159708Y-61413713D01*
X185351369Y-64222051D01*
X185033568Y-64221774D01*
X184551914Y-64420789D01*
X184183084Y-64788976D01*
X183983228Y-65270282D01*
X183982774Y-65791432D01*
X183959500Y-65791432D01*
X183959500Y-58991500D01*
X220989907Y-58991500D01*
X221102946Y-59559785D01*
X221424853Y-60041554D01*
X221765553Y-60269202D01*
X221622642Y-60336317D01*
X221232355Y-60764576D01*
X221062524Y-61174610D01*
X221183845Y-61404500D01*
X222377000Y-61404500D01*
X222377000Y-61384500D01*
X222631000Y-61384500D01*
X222631000Y-61404500D01*
X223824155Y-61404500D01*
X223945476Y-61174610D01*
X223775645Y-60764576D01*
X223385358Y-60336317D01*
X223242447Y-60269202D01*
X223583147Y-60041554D01*
X223905054Y-59559785D01*
X224018093Y-58991500D01*
X223905054Y-58423215D01*
X223583147Y-57941446D01*
X223101378Y-57619539D01*
X222533093Y-57506500D01*
X222474907Y-57506500D01*
X221906622Y-57619539D01*
X221424853Y-57941446D01*
X221102946Y-58423215D01*
X220989907Y-58991500D01*
X183959500Y-58991500D01*
X183959500Y-51958010D01*
X191002192Y-51958010D01*
X191272610Y-52612472D01*
X191772895Y-53113630D01*
X192426883Y-53385190D01*
X193135010Y-53385808D01*
X193789472Y-53115390D01*
X194290630Y-52615105D01*
X194395313Y-52363000D01*
X197257560Y-52363000D01*
X197257560Y-54063000D01*
X197306843Y-54310765D01*
X197447191Y-54520809D01*
X197657235Y-54661157D01*
X197905000Y-54710440D01*
X199605000Y-54710440D01*
X199852765Y-54661157D01*
X200062809Y-54520809D01*
X200203157Y-54310765D01*
X200252440Y-54063000D01*
X200252440Y-52363000D01*
X200203157Y-52115235D01*
X200062809Y-51905191D01*
X199852765Y-51764843D01*
X199749292Y-51744261D01*
X200026645Y-51439924D01*
X200196476Y-51029890D01*
X200075155Y-50800000D01*
X198882000Y-50800000D01*
X198882000Y-50820000D01*
X198628000Y-50820000D01*
X198628000Y-50800000D01*
X197434845Y-50800000D01*
X197313524Y-51029890D01*
X197483355Y-51439924D01*
X197760708Y-51744261D01*
X197657235Y-51764843D01*
X197447191Y-51905191D01*
X197306843Y-52115235D01*
X197257560Y-52363000D01*
X194395313Y-52363000D01*
X194562190Y-51961117D01*
X194562808Y-51252990D01*
X194292390Y-50598528D01*
X194010464Y-50316110D01*
X197313524Y-50316110D01*
X197434845Y-50546000D01*
X198628000Y-50546000D01*
X198628000Y-49352181D01*
X198882000Y-49352181D01*
X198882000Y-50546000D01*
X200075155Y-50546000D01*
X200196476Y-50316110D01*
X200026645Y-49906076D01*
X199636358Y-49477817D01*
X199111892Y-49231514D01*
X198882000Y-49352181D01*
X198628000Y-49352181D01*
X198398108Y-49231514D01*
X197873642Y-49477817D01*
X197483355Y-49906076D01*
X197313524Y-50316110D01*
X194010464Y-50316110D01*
X193792105Y-50097370D01*
X193138117Y-49825810D01*
X192429990Y-49825192D01*
X191775528Y-50095610D01*
X191274370Y-50595895D01*
X191002810Y-51249883D01*
X191002192Y-51958010D01*
X183959500Y-51958010D01*
X183959500Y-45262909D01*
X191704696Y-45262909D01*
X191821105Y-45544812D01*
X192483356Y-45795549D01*
X193191149Y-45773767D01*
X193743895Y-45544812D01*
X193860304Y-45262909D01*
X192782500Y-44185105D01*
X191704696Y-45262909D01*
X183959500Y-45262909D01*
X183959500Y-43706356D01*
X190992451Y-43706356D01*
X191014233Y-44414149D01*
X191243188Y-44966895D01*
X191525091Y-45083304D01*
X192602895Y-44005500D01*
X192962105Y-44005500D01*
X194039909Y-45083304D01*
X194321812Y-44966895D01*
X194572549Y-44304644D01*
X194550767Y-43596851D01*
X194321812Y-43044105D01*
X194039909Y-42927696D01*
X192962105Y-44005500D01*
X192602895Y-44005500D01*
X191525091Y-42927696D01*
X191243188Y-43044105D01*
X190992451Y-43706356D01*
X183959500Y-43706356D01*
X183959500Y-42748091D01*
X191704696Y-42748091D01*
X192782500Y-43825895D01*
X193860304Y-42748091D01*
X193743895Y-42466188D01*
X193081644Y-42215451D01*
X192373851Y-42237233D01*
X191821105Y-42466188D01*
X191704696Y-42748091D01*
X183959500Y-42748091D01*
X183959500Y-38369316D01*
X185006859Y-34991779D01*
X188401186Y-34991779D01*
X188588808Y-35445857D01*
X188935915Y-35793571D01*
X189389666Y-35981985D01*
X189880979Y-35982414D01*
X190335057Y-35794792D01*
X190682771Y-35447685D01*
X190871185Y-34993934D01*
X190871386Y-34763793D01*
X191125787Y-34509392D01*
X191125790Y-34509390D01*
X191317633Y-34222275D01*
X191328810Y-34166084D01*
X191385001Y-33883600D01*
X191385000Y-33883595D01*
X191385000Y-32542187D01*
X191858752Y-32542187D01*
X192076757Y-33069800D01*
X192480077Y-33473824D01*
X193007309Y-33692750D01*
X193578187Y-33693248D01*
X194105800Y-33475243D01*
X194509824Y-33071923D01*
X194728750Y-32544691D01*
X194729248Y-31973813D01*
X194511243Y-31446200D01*
X194107923Y-31042176D01*
X193580691Y-30823250D01*
X193009813Y-30822752D01*
X192482200Y-31040757D01*
X192078176Y-31444077D01*
X191859250Y-31971309D01*
X191858752Y-32542187D01*
X191385000Y-32542187D01*
X191385000Y-31646374D01*
X191546371Y-31485285D01*
X191734785Y-31031534D01*
X191735214Y-30540221D01*
X191547592Y-30086143D01*
X191200485Y-29738429D01*
X190746734Y-29550015D01*
X190255421Y-29549586D01*
X189801343Y-29737208D01*
X189453629Y-30084315D01*
X189265215Y-30538066D01*
X189264786Y-31029379D01*
X189452408Y-31483457D01*
X189615000Y-31646333D01*
X189615000Y-33512181D01*
X189391821Y-33511986D01*
X188937743Y-33699608D01*
X188590029Y-34046715D01*
X188401615Y-34500466D01*
X188401186Y-34991779D01*
X185006859Y-34991779D01*
X186252502Y-30974815D01*
X186257607Y-30949460D01*
X186252676Y-30900152D01*
X185027837Y-26883988D01*
X186141177Y-26883988D01*
X186190460Y-27131753D01*
X186330808Y-27341797D01*
X187462179Y-28473168D01*
X187672223Y-28613516D01*
X187919988Y-28662799D01*
X188167753Y-28613516D01*
X188377797Y-28473168D01*
X189509168Y-27341797D01*
X189649516Y-27131753D01*
X189698799Y-26883988D01*
X189649516Y-26636223D01*
X189509168Y-26426179D01*
X188377797Y-25294808D01*
X188167753Y-25154460D01*
X187919988Y-25105177D01*
X187672223Y-25154460D01*
X187462179Y-25294808D01*
X186330808Y-26426179D01*
X186190460Y-26636223D01*
X186141177Y-26883988D01*
X185027837Y-26883988D01*
X184070381Y-23744555D01*
X217328650Y-23744555D01*
X217853842Y-24375092D01*
X219729223Y-25185090D01*
X221771823Y-25215753D01*
X223670673Y-24462413D01*
X223801358Y-24375092D01*
X224326550Y-23744555D01*
X220827600Y-20245605D01*
X217328650Y-23744555D01*
X184070381Y-23744555D01*
X183959500Y-23380985D01*
X183959500Y-21010223D01*
X215677847Y-21010223D01*
X216431187Y-22909073D01*
X216518508Y-23039758D01*
X217149045Y-23564950D01*
X220647995Y-20066000D01*
X217149045Y-16567050D01*
X216518508Y-17092242D01*
X215708510Y-18967623D01*
X215677847Y-21010223D01*
X183959500Y-21010223D01*
X183959500Y-19812000D01*
X183949833Y-19763399D01*
X183922303Y-19722197D01*
X183881101Y-19694667D01*
X183832500Y-19685000D01*
X156474498Y-19685000D01*
X156482953Y-19121777D01*
X155729613Y-17222927D01*
X155642292Y-17092242D01*
X155011755Y-16567050D01*
X151893805Y-19685000D01*
X151534595Y-19685000D01*
X154832150Y-16387445D01*
X154306958Y-15756908D01*
X154165938Y-15696000D01*
X217944997Y-15696000D01*
X217853842Y-15756908D01*
X217853842Y-15756908D01*
G37*
X217853842Y-15756908D02*
X217328650Y-16387445D01*
X220827600Y-19886395D01*
X224326550Y-16387445D01*
X223801358Y-15756908D01*
X223660338Y-15696000D01*
X225223000Y-15696000D01*
X225223000Y-17221411D01*
X225136692Y-17092242D01*
X224506155Y-16567050D01*
X221007205Y-20066000D01*
X224506155Y-23564950D01*
X225136692Y-23039758D01*
X225223000Y-22839930D01*
X225223000Y-69647011D01*
X225136692Y-69517842D01*
X224506155Y-68992650D01*
X221007205Y-72491600D01*
X224506155Y-75990550D01*
X225136692Y-75465358D01*
X225223000Y-75265530D01*
X225223000Y-76887000D01*
X223672189Y-76887000D01*
X223801358Y-76800692D01*
X224326550Y-76170155D01*
X220827600Y-72671205D01*
X217328650Y-76170155D01*
X217853842Y-76800692D01*
X218053670Y-76887000D01*
X154177789Y-76887000D01*
X154306958Y-76800692D01*
X154832150Y-76170155D01*
X151333200Y-72671205D01*
X147834250Y-76170155D01*
X148359442Y-76800692D01*
X148559270Y-76887000D01*
X146950500Y-76887000D01*
X146950500Y-75355196D01*
X147024108Y-75465358D01*
X147654645Y-75990550D01*
X151153595Y-72491600D01*
X151512805Y-72491600D01*
X155011755Y-75990550D01*
X155642292Y-75465358D01*
X156452290Y-73589977D01*
X156482953Y-71547377D01*
X155729613Y-69648527D01*
X155642292Y-69517842D01*
X155011755Y-68992650D01*
X151512805Y-72491600D01*
X151153595Y-72491600D01*
X147654645Y-68992650D01*
X147024108Y-69517842D01*
X146950500Y-69688266D01*
X146950500Y-68813045D01*
X147834250Y-68813045D01*
X151333200Y-72311995D01*
X154832150Y-68813045D01*
X154306958Y-68182508D01*
X152431577Y-67372510D01*
X150388977Y-67341847D01*
X148490127Y-68095187D01*
X148359442Y-68182508D01*
X147834250Y-68813045D01*
X146950500Y-68813045D01*
X146950500Y-65090880D01*
X151042225Y-65090880D01*
X151323921Y-65513564D01*
X152476392Y-65990294D01*
X153723572Y-65989705D01*
X154873079Y-65513564D01*
X155154775Y-65090880D01*
X153098500Y-63034605D01*
X151042225Y-65090880D01*
X146950500Y-65090880D01*
X146950500Y-62232892D01*
X149963206Y-62232892D01*
X149963795Y-63480072D01*
X150439936Y-64629579D01*
X150862620Y-64911275D01*
X152918895Y-62855000D01*
X153278105Y-62855000D01*
X155334380Y-64911275D01*
X155757064Y-64629579D01*
X156233794Y-63477108D01*
X156233205Y-62229928D01*
X155757064Y-61080421D01*
X155334380Y-60798725D01*
X153278105Y-62855000D01*
X152918895Y-62855000D01*
X150862620Y-60798725D01*
X150439936Y-61080421D01*
X149963206Y-62232892D01*
X146950500Y-62232892D01*
X146950500Y-60388500D01*
X151195921Y-60388500D01*
X151042225Y-60619120D01*
X153098500Y-62675395D01*
X155154775Y-60619120D01*
X155001079Y-60388500D01*
X155649394Y-60388500D01*
X170026697Y-74765803D01*
X170067899Y-74793333D01*
X170116500Y-74803000D01*
X183832500Y-74803000D01*
X183881101Y-74793333D01*
X183922303Y-74765803D01*
X183949833Y-74724601D01*
X183959500Y-74676000D01*
X183959500Y-73257315D01*
X191285630Y-73257315D01*
X191609980Y-74042300D01*
X192210041Y-74643409D01*
X192994459Y-74969128D01*
X193843815Y-74969870D01*
X194628800Y-74645520D01*
X195229909Y-74045459D01*
X195555628Y-73261041D01*
X195556370Y-72411685D01*
X195232020Y-71626700D01*
X194940330Y-71334500D01*
X196353560Y-71334500D01*
X196353560Y-74334500D01*
X196402843Y-74582265D01*
X196543191Y-74792309D01*
X196753235Y-74932657D01*
X197001000Y-74981940D01*
X200001000Y-74981940D01*
X200248765Y-74932657D01*
X200458809Y-74792309D01*
X200599157Y-74582265D01*
X200648440Y-74334500D01*
X200648440Y-73435823D01*
X215677847Y-73435823D01*
X216431187Y-75334673D01*
X216518508Y-75465358D01*
X217149045Y-75990550D01*
X220647995Y-72491600D01*
X217149045Y-68992650D01*
X216518508Y-69517842D01*
X215708510Y-71393223D01*
X215677847Y-73435823D01*
X200648440Y-73435823D01*
X200648440Y-71334500D01*
X200599157Y-71086735D01*
X200458809Y-70876691D01*
X200248765Y-70736343D01*
X200001000Y-70687060D01*
X197001000Y-70687060D01*
X196753235Y-70736343D01*
X196543191Y-70876691D01*
X196402843Y-71086735D01*
X196353560Y-71334500D01*
X194940330Y-71334500D01*
X194631959Y-71025591D01*
X193847541Y-70699872D01*
X192998185Y-70699130D01*
X192213200Y-71023480D01*
X191612091Y-71623541D01*
X191286372Y-72407959D01*
X191285630Y-73257315D01*
X183959500Y-73257315D01*
X183959500Y-68989147D01*
X184555458Y-68989147D01*
X184614219Y-69222328D01*
X185106100Y-69394522D01*
X185626434Y-69365375D01*
X185971781Y-69222328D01*
X186030542Y-68989147D01*
X185293000Y-68251605D01*
X184555458Y-68989147D01*
X183959500Y-68989147D01*
X183959500Y-67885100D01*
X183970478Y-67885100D01*
X183999625Y-68405434D01*
X184142672Y-68750781D01*
X184375853Y-68809542D01*
X185113395Y-68072000D01*
X185472605Y-68072000D01*
X186210147Y-68809542D01*
X186443328Y-68750781D01*
X186578379Y-68365000D01*
X208370060Y-68365000D01*
X208370060Y-70065000D01*
X208419343Y-70312765D01*
X208559691Y-70522809D01*
X208769735Y-70663157D01*
X209017500Y-70712440D01*
X210717500Y-70712440D01*
X210965265Y-70663157D01*
X211175309Y-70522809D01*
X211315657Y-70312765D01*
X211328097Y-70250223D01*
X211357446Y-70294147D01*
X211839215Y-70616054D01*
X212407500Y-70729093D01*
X212975785Y-70616054D01*
X213457554Y-70294147D01*
X213685202Y-69953447D01*
X213752317Y-70096358D01*
X214180576Y-70486645D01*
X214590610Y-70656476D01*
X214820500Y-70535155D01*
X214820500Y-69342000D01*
X215074500Y-69342000D01*
X215074500Y-70535155D01*
X215304390Y-70656476D01*
X215714424Y-70486645D01*
X216142683Y-70096358D01*
X216388986Y-69571892D01*
X216268319Y-69342000D01*
X215074500Y-69342000D01*
X214820500Y-69342000D01*
X214800500Y-69342000D01*
X214800500Y-69088000D01*
X214820500Y-69088000D01*
X214820500Y-67894845D01*
X215074500Y-67894845D01*
X215074500Y-69088000D01*
X216268319Y-69088000D01*
X216388986Y-68858108D01*
X216367824Y-68813045D01*
X217328650Y-68813045D01*
X220827600Y-72311995D01*
X224326550Y-68813045D01*
X223801358Y-68182508D01*
X221925977Y-67372510D01*
X219883377Y-67341847D01*
X217984527Y-68095187D01*
X217853842Y-68182508D01*
X217328650Y-68813045D01*
X216367824Y-68813045D01*
X216142683Y-68333642D01*
X215714424Y-67943355D01*
X215304390Y-67773524D01*
X215074500Y-67894845D01*
X214820500Y-67894845D01*
X214590610Y-67773524D01*
X214180576Y-67943355D01*
X213752317Y-68333642D01*
X213685202Y-68476553D01*
X213457554Y-68135853D01*
X212975785Y-67813946D01*
X212407500Y-67700907D01*
X211839215Y-67813946D01*
X211357446Y-68135853D01*
X211328097Y-68179777D01*
X211315657Y-68117235D01*
X211175309Y-67907191D01*
X210965265Y-67766843D01*
X210717500Y-67717560D01*
X209017500Y-67717560D01*
X208769735Y-67766843D01*
X208559691Y-67907191D01*
X208419343Y-68117235D01*
X208370060Y-68365000D01*
X186578379Y-68365000D01*
X186615522Y-68258900D01*
X186586375Y-67738566D01*
X186443328Y-67393219D01*
X186210147Y-67334458D01*
X185472605Y-68072000D01*
X185113395Y-68072000D01*
X184375853Y-67334458D01*
X184142672Y-67393219D01*
X183970478Y-67885100D01*
X183959500Y-67885100D01*
X183959500Y-65791432D01*
X183982774Y-65791432D01*
X184181789Y-66273086D01*
X184549976Y-66641916D01*
X184919337Y-66795288D01*
X184614219Y-66921672D01*
X184555458Y-67154853D01*
X185293000Y-67892395D01*
X186030542Y-67154853D01*
X185971781Y-66921672D01*
X185640680Y-66805763D01*
X186034086Y-66643211D01*
X186402916Y-66275024D01*
X186602772Y-65793718D01*
X186603051Y-65473529D01*
X188283579Y-63793000D01*
X211354560Y-63793000D01*
X211354560Y-65493000D01*
X211403843Y-65740765D01*
X211544191Y-65950809D01*
X211754235Y-66091157D01*
X212002000Y-66140440D01*
X213702000Y-66140440D01*
X213949765Y-66091157D01*
X214159809Y-65950809D01*
X214300157Y-65740765D01*
X214320739Y-65637292D01*
X214625076Y-65914645D01*
X215035110Y-66084476D01*
X215265000Y-65963155D01*
X215265000Y-64770000D01*
X215519000Y-64770000D01*
X215519000Y-65963155D01*
X215748890Y-66084476D01*
X216158924Y-65914645D01*
X216587183Y-65524358D01*
X216833486Y-64999892D01*
X216712819Y-64770000D01*
X215519000Y-64770000D01*
X215265000Y-64770000D01*
X215245000Y-64770000D01*
X215245000Y-64516000D01*
X215265000Y-64516000D01*
X215265000Y-63322845D01*
X215519000Y-63322845D01*
X215519000Y-64516000D01*
X216712819Y-64516000D01*
X216833486Y-64286108D01*
X216587183Y-63761642D01*
X216158924Y-63371355D01*
X215797120Y-63221500D01*
X221006560Y-63221500D01*
X221006560Y-64921500D01*
X221055843Y-65169265D01*
X221196191Y-65379309D01*
X221406235Y-65519657D01*
X221654000Y-65568940D01*
X223354000Y-65568940D01*
X223601765Y-65519657D01*
X223811809Y-65379309D01*
X223952157Y-65169265D01*
X224001440Y-64921500D01*
X224001440Y-63221500D01*
X223952157Y-62973735D01*
X223811809Y-62763691D01*
X223601765Y-62623343D01*
X223498292Y-62602761D01*
X223775645Y-62298424D01*
X223945476Y-61888390D01*
X223824155Y-61658500D01*
X222631000Y-61658500D01*
X222631000Y-61678500D01*
X222377000Y-61678500D01*
X222377000Y-61658500D01*
X221183845Y-61658500D01*
X221062524Y-61888390D01*
X221232355Y-62298424D01*
X221509708Y-62602761D01*
X221406235Y-62623343D01*
X221196191Y-62763691D01*
X221055843Y-62973735D01*
X221006560Y-63221500D01*
X215797120Y-63221500D01*
X215748890Y-63201524D01*
X215519000Y-63322845D01*
X215265000Y-63322845D01*
X215035110Y-63201524D01*
X214625076Y-63371355D01*
X214320739Y-63648708D01*
X214300157Y-63545235D01*
X214159809Y-63335191D01*
X213949765Y-63194843D01*
X213702000Y-63145560D01*
X212002000Y-63145560D01*
X211754235Y-63194843D01*
X211544191Y-63335191D01*
X211403843Y-63545235D01*
X211354560Y-63793000D01*
X188283579Y-63793000D01*
X189152079Y-62924500D01*
X196877426Y-62924500D01*
X197038515Y-63085871D01*
X197492266Y-63274285D01*
X197983579Y-63274714D01*
X198437657Y-63087092D01*
X198785371Y-62739985D01*
X198973785Y-62286234D01*
X198974214Y-61794921D01*
X198786592Y-61340843D01*
X198439485Y-60993129D01*
X197985734Y-60804715D01*
X197494421Y-60804286D01*
X197040343Y-60991908D01*
X196877467Y-61154500D01*
X188785505Y-61154500D01*
X188785500Y-61154499D01*
X188503016Y-61210690D01*
X188446825Y-61221867D01*
X188159710Y-61413710D01*
X188159708Y-61413713D01*
X185351369Y-64222051D01*
X185033568Y-64221774D01*
X184551914Y-64420789D01*
X184183084Y-64788976D01*
X183983228Y-65270282D01*
X183982774Y-65791432D01*
X183959500Y-65791432D01*
X183959500Y-58991500D01*
X220989907Y-58991500D01*
X221102946Y-59559785D01*
X221424853Y-60041554D01*
X221765553Y-60269202D01*
X221622642Y-60336317D01*
X221232355Y-60764576D01*
X221062524Y-61174610D01*
X221183845Y-61404500D01*
X222377000Y-61404500D01*
X222377000Y-61384500D01*
X222631000Y-61384500D01*
X222631000Y-61404500D01*
X223824155Y-61404500D01*
X223945476Y-61174610D01*
X223775645Y-60764576D01*
X223385358Y-60336317D01*
X223242447Y-60269202D01*
X223583147Y-60041554D01*
X223905054Y-59559785D01*
X224018093Y-58991500D01*
X223905054Y-58423215D01*
X223583147Y-57941446D01*
X223101378Y-57619539D01*
X222533093Y-57506500D01*
X222474907Y-57506500D01*
X221906622Y-57619539D01*
X221424853Y-57941446D01*
X221102946Y-58423215D01*
X220989907Y-58991500D01*
X183959500Y-58991500D01*
X183959500Y-51958010D01*
X191002192Y-51958010D01*
X191272610Y-52612472D01*
X191772895Y-53113630D01*
X192426883Y-53385190D01*
X193135010Y-53385808D01*
X193789472Y-53115390D01*
X194290630Y-52615105D01*
X194395313Y-52363000D01*
X197257560Y-52363000D01*
X197257560Y-54063000D01*
X197306843Y-54310765D01*
X197447191Y-54520809D01*
X197657235Y-54661157D01*
X197905000Y-54710440D01*
X199605000Y-54710440D01*
X199852765Y-54661157D01*
X200062809Y-54520809D01*
X200203157Y-54310765D01*
X200252440Y-54063000D01*
X200252440Y-52363000D01*
X200203157Y-52115235D01*
X200062809Y-51905191D01*
X199852765Y-51764843D01*
X199749292Y-51744261D01*
X200026645Y-51439924D01*
X200196476Y-51029890D01*
X200075155Y-50800000D01*
X198882000Y-50800000D01*
X198882000Y-50820000D01*
X198628000Y-50820000D01*
X198628000Y-50800000D01*
X197434845Y-50800000D01*
X197313524Y-51029890D01*
X197483355Y-51439924D01*
X197760708Y-51744261D01*
X197657235Y-51764843D01*
X197447191Y-51905191D01*
X197306843Y-52115235D01*
X197257560Y-52363000D01*
X194395313Y-52363000D01*
X194562190Y-51961117D01*
X194562808Y-51252990D01*
X194292390Y-50598528D01*
X194010464Y-50316110D01*
X197313524Y-50316110D01*
X197434845Y-50546000D01*
X198628000Y-50546000D01*
X198628000Y-49352181D01*
X198882000Y-49352181D01*
X198882000Y-50546000D01*
X200075155Y-50546000D01*
X200196476Y-50316110D01*
X200026645Y-49906076D01*
X199636358Y-49477817D01*
X199111892Y-49231514D01*
X198882000Y-49352181D01*
X198628000Y-49352181D01*
X198398108Y-49231514D01*
X197873642Y-49477817D01*
X197483355Y-49906076D01*
X197313524Y-50316110D01*
X194010464Y-50316110D01*
X193792105Y-50097370D01*
X193138117Y-49825810D01*
X192429990Y-49825192D01*
X191775528Y-50095610D01*
X191274370Y-50595895D01*
X191002810Y-51249883D01*
X191002192Y-51958010D01*
X183959500Y-51958010D01*
X183959500Y-45262909D01*
X191704696Y-45262909D01*
X191821105Y-45544812D01*
X192483356Y-45795549D01*
X193191149Y-45773767D01*
X193743895Y-45544812D01*
X193860304Y-45262909D01*
X192782500Y-44185105D01*
X191704696Y-45262909D01*
X183959500Y-45262909D01*
X183959500Y-43706356D01*
X190992451Y-43706356D01*
X191014233Y-44414149D01*
X191243188Y-44966895D01*
X191525091Y-45083304D01*
X192602895Y-44005500D01*
X192962105Y-44005500D01*
X194039909Y-45083304D01*
X194321812Y-44966895D01*
X194572549Y-44304644D01*
X194550767Y-43596851D01*
X194321812Y-43044105D01*
X194039909Y-42927696D01*
X192962105Y-44005500D01*
X192602895Y-44005500D01*
X191525091Y-42927696D01*
X191243188Y-43044105D01*
X190992451Y-43706356D01*
X183959500Y-43706356D01*
X183959500Y-42748091D01*
X191704696Y-42748091D01*
X192782500Y-43825895D01*
X193860304Y-42748091D01*
X193743895Y-42466188D01*
X193081644Y-42215451D01*
X192373851Y-42237233D01*
X191821105Y-42466188D01*
X191704696Y-42748091D01*
X183959500Y-42748091D01*
X183959500Y-38369316D01*
X185006859Y-34991779D01*
X188401186Y-34991779D01*
X188588808Y-35445857D01*
X188935915Y-35793571D01*
X189389666Y-35981985D01*
X189880979Y-35982414D01*
X190335057Y-35794792D01*
X190682771Y-35447685D01*
X190871185Y-34993934D01*
X190871386Y-34763793D01*
X191125787Y-34509392D01*
X191125790Y-34509390D01*
X191317633Y-34222275D01*
X191328810Y-34166084D01*
X191385001Y-33883600D01*
X191385000Y-33883595D01*
X191385000Y-32542187D01*
X191858752Y-32542187D01*
X192076757Y-33069800D01*
X192480077Y-33473824D01*
X193007309Y-33692750D01*
X193578187Y-33693248D01*
X194105800Y-33475243D01*
X194509824Y-33071923D01*
X194728750Y-32544691D01*
X194729248Y-31973813D01*
X194511243Y-31446200D01*
X194107923Y-31042176D01*
X193580691Y-30823250D01*
X193009813Y-30822752D01*
X192482200Y-31040757D01*
X192078176Y-31444077D01*
X191859250Y-31971309D01*
X191858752Y-32542187D01*
X191385000Y-32542187D01*
X191385000Y-31646374D01*
X191546371Y-31485285D01*
X191734785Y-31031534D01*
X191735214Y-30540221D01*
X191547592Y-30086143D01*
X191200485Y-29738429D01*
X190746734Y-29550015D01*
X190255421Y-29549586D01*
X189801343Y-29737208D01*
X189453629Y-30084315D01*
X189265215Y-30538066D01*
X189264786Y-31029379D01*
X189452408Y-31483457D01*
X189615000Y-31646333D01*
X189615000Y-33512181D01*
X189391821Y-33511986D01*
X188937743Y-33699608D01*
X188590029Y-34046715D01*
X188401615Y-34500466D01*
X188401186Y-34991779D01*
X185006859Y-34991779D01*
X186252502Y-30974815D01*
X186257607Y-30949460D01*
X186252676Y-30900152D01*
X185027837Y-26883988D01*
X186141177Y-26883988D01*
X186190460Y-27131753D01*
X186330808Y-27341797D01*
X187462179Y-28473168D01*
X187672223Y-28613516D01*
X187919988Y-28662799D01*
X188167753Y-28613516D01*
X188377797Y-28473168D01*
X189509168Y-27341797D01*
X189649516Y-27131753D01*
X189698799Y-26883988D01*
X189649516Y-26636223D01*
X189509168Y-26426179D01*
X188377797Y-25294808D01*
X188167753Y-25154460D01*
X187919988Y-25105177D01*
X187672223Y-25154460D01*
X187462179Y-25294808D01*
X186330808Y-26426179D01*
X186190460Y-26636223D01*
X186141177Y-26883988D01*
X185027837Y-26883988D01*
X184070381Y-23744555D01*
X217328650Y-23744555D01*
X217853842Y-24375092D01*
X219729223Y-25185090D01*
X221771823Y-25215753D01*
X223670673Y-24462413D01*
X223801358Y-24375092D01*
X224326550Y-23744555D01*
X220827600Y-20245605D01*
X217328650Y-23744555D01*
X184070381Y-23744555D01*
X183959500Y-23380985D01*
X183959500Y-21010223D01*
X215677847Y-21010223D01*
X216431187Y-22909073D01*
X216518508Y-23039758D01*
X217149045Y-23564950D01*
X220647995Y-20066000D01*
X217149045Y-16567050D01*
X216518508Y-17092242D01*
X215708510Y-18967623D01*
X215677847Y-21010223D01*
X183959500Y-21010223D01*
X183959500Y-19812000D01*
X183949833Y-19763399D01*
X183922303Y-19722197D01*
X183881101Y-19694667D01*
X183832500Y-19685000D01*
X156474498Y-19685000D01*
X156482953Y-19121777D01*
X155729613Y-17222927D01*
X155642292Y-17092242D01*
X155011755Y-16567050D01*
X151893805Y-19685000D01*
X151534595Y-19685000D01*
X154832150Y-16387445D01*
X154306958Y-15756908D01*
X154165938Y-15696000D01*
X217944997Y-15696000D01*
X217853842Y-15756908D01*
M02*
