G04 #@! TF.GenerationSoftware,KiCad,Pcbnew,no-vcs-found-c78a2ba~59~ubuntu16.10.1*
G04 #@! TF.CreationDate,2017-11-10T05:59:47+01:00*
G04 #@! TF.ProjectId,open_reflow,6F70656E5F7265666C6F772E6B696361,rev?*
G04 #@! TF.SameCoordinates,Original
G04 #@! TF.FileFunction,Paste,Top*
G04 #@! TF.FilePolarity,Positive*
%FSLAX46Y46*%
G04 Gerber Fmt 4.6, Leading zero omitted, Abs format (unit mm)*
G04 Created by KiCad (PCBNEW no-vcs-found-c78a2ba~59~ubuntu16.10.1) date Fri Nov 10 05:59:47 2017*
%MOMM*%
%LPD*%
G01*
G04 APERTURE LIST*
%ADD10R,0.900000X0.800000*%
%ADD11R,1.100000X2.500000*%
%ADD12R,1.600000X2.000000*%
%ADD13R,2.000000X1.600000*%
%ADD14R,1.250000X1.500000*%
%ADD15R,1.500000X1.300000*%
%ADD16R,1.300000X1.500000*%
%ADD17R,1.800000X2.500000*%
%ADD18R,2.000000X1.700000*%
G04 APERTURE END LIST*
D10*
X198755000Y-36830000D03*
X200755000Y-35880000D03*
X200755000Y-37780000D03*
D11*
X224503500Y-38830500D03*
X222503500Y-38830500D03*
X220503500Y-38830500D03*
X218503500Y-38830500D03*
X216503500Y-38830500D03*
X214503500Y-38830500D03*
X212503500Y-38830500D03*
X210503500Y-38830500D03*
X210503500Y-54230500D03*
X212503500Y-54130500D03*
X214503500Y-54230500D03*
X216503500Y-54230500D03*
X218503500Y-54230500D03*
X220503500Y-54230500D03*
X222503500Y-54230500D03*
X224503500Y-54230500D03*
D12*
X202692000Y-45307000D03*
X202692000Y-41307000D03*
X197612000Y-41338500D03*
X197612000Y-45338500D03*
D13*
X213734400Y-72898000D03*
X209734400Y-72898000D03*
D12*
X200152000Y-41307000D03*
X200152000Y-45307000D03*
D14*
X205041500Y-41104500D03*
X205041500Y-43604500D03*
X207200500Y-43604500D03*
X207200500Y-41104500D03*
D10*
X200755000Y-32829500D03*
X200755000Y-30929500D03*
X198755000Y-31879500D03*
D15*
X206391500Y-33337500D03*
X203691500Y-33337500D03*
X189785000Y-65595500D03*
X192485000Y-65595500D03*
D16*
X220599000Y-33194000D03*
X220599000Y-35894000D03*
D15*
X203628000Y-61658500D03*
X206328000Y-61658500D03*
D16*
X222885000Y-35894000D03*
X222885000Y-33194000D03*
X207010000Y-54055000D03*
X207010000Y-51355000D03*
D15*
X206391500Y-31115000D03*
X203691500Y-31115000D03*
X200892400Y-27076400D03*
X198192400Y-27076400D03*
D16*
X209105500Y-66564500D03*
X209105500Y-63864500D03*
D13*
X209941000Y-34937500D03*
X217541000Y-34937500D03*
X217541000Y-31737500D03*
X209941000Y-31737500D03*
X217531000Y-60921500D03*
X209931000Y-60921500D03*
X209931000Y-57721500D03*
X217531000Y-57721500D03*
D17*
X204343000Y-69437000D03*
X204343000Y-65437000D03*
D15*
X206502000Y-38481000D03*
X203802000Y-38481000D03*
X203691500Y-27114500D03*
X206391500Y-27114500D03*
D18*
X170180000Y-65214500D03*
X174180000Y-65214500D03*
X174180000Y-69723000D03*
X170180000Y-69723000D03*
M02*
