M48
;DRILL file {KiCad no-vcs-found-c78a2ba~59~ubuntu16.10.1} date Fri Nov 10 05:59:49 2017
;FORMAT={-:-/ absolute / metric / decimal}
FMAT,2
METRIC,TZ
T1C0.600
T2C0.760
T3C0.850
T4C1.000
T5C1.300
T6C1.520
T7C4.500
%
G90
G05
M71
T1
X158.852Y-69.748
X165.049Y-73.
X172.72Y-76.556
X176.53Y-17.17
X187.35Y-17.17
X187.503Y-75.844
X189.636Y-34.747
X190.5Y-30.785
X197.739Y-62.039
X200.711Y-17.17
X200.836Y-28.942
X200.965Y-24.028
X201.208Y-34.508
X201.778Y-66.446
X203.81Y-35.662
X205.08Y-46.888
X205.232Y-53.975
X207.264Y-46.99
X207.264Y-59.436
X208.724Y-55.626
X213.512Y-27.229
X215.201Y-34.671
X223.164Y-30.074
T2
X164.782Y-44.005
X164.782Y-59.206
X192.782Y-44.005
X192.782Y-51.605
T3
X177.673Y-65.532
X177.673Y-68.072
X185.293Y-65.532
X185.293Y-68.072
T4
X212.852Y-64.643
X215.392Y-64.643
X198.755Y-50.673
X198.755Y-53.213
X187.92Y-26.884
X193.294Y-32.258
X222.504Y-58.991
X222.504Y-61.531
X222.504Y-64.072
X178.062Y-24.892
X178.062Y-36.892
X209.867Y-69.215
X212.407Y-69.215
X214.947Y-69.215
T5
X165.812Y-36.942
X165.862Y-24.892
X180.012Y-30.942
T6
X193.421Y-72.834
X198.501Y-72.834
X153.099Y-29.855
X153.099Y-38.105
X153.099Y-46.355
X153.099Y-54.605
X153.099Y-62.855
T7
X220.828Y-72.492
X220.828Y-20.066
X151.333Y-72.492
X151.333Y-20.066
T0
M30
